<?xml version="1.0" encoding="utf-8"?>

<svg version="1.1" id="Layer_1" xmlns="http://www.w3.org/2000/svg" xmlns:xlink="http://www.w3.org/1999/xlink" x="0px" y="0px"
	 viewBox="0 0 4844.882 5000" enable-background="new 0 0 4844.882 5000" xml:space="preserve">
<g>
	<path d="M777.677,2992.475l42.586,22.985c-40.019-33.936-78.042-59.27-85.708-117.063
		c-11.429-86.187,68.082-168.083,177.24-182.572c109.192-14.559,207.302,43.846,218.731,130.032
		c6.865,51.801-17.59,84.252-40.562,122.31c28.526-28.302,70.249-62.618,61.942-125.144
		c-20.952-158.032-267.815-206.105-390.786-76.614C686.87,2844.606,699.924,2950.472,777.677,2992.475z"/>
	<path d="M1597.385,2983.015c12.379,13.504,23.154,30.862,28.506,52.87l9.98-1.421c-0.077-1.85-2.335-45.646-31.847-75.82
		c-30.932-31.601-67.373-26.98-97.124-24.94c25.18,7.68,47.046,12.54,74.468,34.435
		c-247.166,278.049-891.251,417.71-1174.236,168.005c34.64-37.924,72.444-44.809,109.305-54.41
		c-36.298-0.331-92.186-6.358-130.019,45.492c-37.459,51.365-24.244,90.997-16.55,124.216c2.785-37.207,2.292-64.84,23.962-98.059
		c28.302,24.638,121.761,95.618,284.948,124.075c38.958,23.161,66.774,72.535,99.198,122.443l-0.064,0.049
		c43.656,65.459,86.856,121.74,167.478,131.109c14.587,1.737,23.415,1.435,22.613,1.435c7.744,0,14.784-0.345,22.584-1.372l0,0
		c102.919-13.694,148.748-124.349,185.322-219.215l-0.043-0.007c10.557-27.599,29.99-82.902,47.798-95.696
		C1448.504,3136.469,1564.94,3019.659,1597.385,2983.015z M926.285,3505.086c-52.736-14.01-87.903-54.516-118.638-99.656
		c40.16-26.502,101.554-44.169,151.153-33.226c-15.291,26.474-16.718,49.923-23.633,91.827
		c16.148-41.898,28.077-86.433,68.307-104.086l-0.127-0.302c42.382-21.93,93.867-28.851,141.342-27.458
		C1100.317,3443.27,1043.432,3536.469,926.285,3505.086z M1153.201,3310.628c-62.125-2.975-130.342,7.483-181.136,42.094
		c-56.049-16.17-128.379,2.652-176.481,34.499c-22.704-35.012-44.971-72.816-71.135-100.31
		c131.614,17.815,337.425-15.473,462.288-57.083C1175.271,3251.576,1164.011,3282.459,1153.201,3310.628z"/>
	<path d="M1487.524,2726.973v0.007c117.261,4.459,228.268-53.671,298.628-165.48c171.051-271.529,0.627-680.778-306.373-692.925
		c-110.339-4.262-211.527,47.89-279.646,138.465C1000.267,2272.718,1166.439,2714.109,1487.524,2726.973z M1225.405,2021.67
		c187.558-249.325,544.859-104.874,592.679,229.357c35.821,250.373-126.312,456.787-328.197,448.481
		C1201.753,2688.058,1035.068,2274.737,1225.405,2021.67z"/>
	<path d="M1347.891,2530.216c102.54,122.802,271.283,96.8,332.171-54.058c64.277-159.277-34.337-360.881-190.948-368.997
		C1299.432,2097.328,1212.928,2368.583,1347.891,2530.216z M1343.01,2215.375c32.416-53.749,79.407-83.148,144.092-83.148
		c157.512,8.166,245.07,245.766,140.569,384.625c-35.083,46.624-82.917,68.167-132.459,65.832
		C1347.118,2574.997,1256.127,2359.594,1343.01,2215.375z"/>
	<path d="M1478.457,2549.452c24.237,0,48.172-11.338,66.283-35.385c61.669-81.946,7.399-230.891-84.652-228.38
		c10.473,8.018,18.342,22.521,16.768,38.508c-4.755,48.094-74.582,59.854-91.588,14.411
		C1341.393,2424.877,1395.97,2549.452,1478.457,2549.452z"/>
	<path d="M511.95,2813.047L511.95,2813.047c346.842-44.247,429.379-560.895,145.549-782.129
		c-94.352-73.541-206.604-91.891-306.077-60.747c-291.588,91.286-352.06,530.363-115.107,748.833
		C317.69,2794.093,416.227,2825.081,511.95,2813.047z M140.519,2505.1c-105.838-359.994,224.744-665.185,496.391-453.46
		c271.881,211.915,178.971,695.534-128.338,734.147C338.029,2807.329,190.443,2674.884,140.519,2505.1z"/>
	<path d="M498.601,2694.535L498.601,2694.535c121.973-15.297,191.313-145.998,175.433-275.194
		c-16.043-129.962-116.254-238.704-236.819-223.702c-194.782,24.427-242.319,329.188-76.74,458.222
		C400.064,2684.71,448.811,2700.753,498.601,2694.535z M288.494,2467.548v-0.007c-13.51-109.734,40.062-213.307,124.61-240.913
		c98.417-32.241,216.205,49.43,234.231,196.04c14.201,115.727-48.347,234.273-151.814,246.997
		C387.658,2683.219,302.245,2579.547,288.494,2467.548z"/>
	<path d="M519.842,2629.189c86.699-10.845,113.849-154.051,45.394-229.906c-1.533,16.184-12.892,32.03-31.193,38.008
		c-43.924,14.341-82.001-34.203-54.831-69.595c-50.015,11.992-83.05,73.527-74.602,142.327
		C412.436,2573.639,458.546,2636.939,519.842,2629.189z"/>
	<path d="M4475.723,4735.941c-22.169-202.012-40.026-589.514-63.272-996.301c129.653-79.217,191.863-167.063,192.018-221.867
		c0.12-34.801-18.308-66.254-56.267-94.908c22.858-22.464,43.572-46.244,61.951-71.395
		c30.426-53.341-178.078-155.796-232.741-183.085c49.908,2.891,173.927,11.788,178.548-24.434
		c5.543-43.6-85.434-112.14-199.41-179.969c-12.294-123.843-41.237-411.795-97.018-508.44l-0.232,0.127
		c-0.992-1.428-2.188-2.602-3.278-3.932l-0.302-0.844l0.027,0.521c-8.503-10.233-19.482-17.464-33.254-21.079
		c-67.414-17.745-303.939,225.545-364.073,285.659c-126.748-54.93-255.724-106-382.683-151.779
		c-31.171-378.239-69.672-698.917-120.628-835.441c-28.056-185.526-303.004,138.908-419.047,285.694
		c-75.736,95.801-151.717,201.21-223,308.44c-214.721-109.896-522.38-136.461-675.657-142.692
		c-66.719-191.567-199.339-338.831-405.233-382.431c-93.157-60.944-196.829-105.472-306.548-133.007
		C1934.74,841.145,2778.67,292.777,3816.018,212.034l-0.809-23.323c-1038.901-8.475-1993.073,606.541-2611.071,1452.912
		c-147.144-19.391-303.931-10.072-461.577,33.837c542.53-881.439,1330.884-1478.9,2339.555-1652.321L3079.219,0
		c-785.519,64.32-1460.488,462.393-1992.7,1043.916c-275.665,301.21-446.526,580.222-510.451,692.461
		c-63.722,29.575-121.536,64.517-170.461,103.868c-283.971-25.967-487.368,228.745-373.365,571.958
		c47.06,136.566,55.297,233.352,65.74,359.952c-189.344,433.514,128.013,604.431,507.491,780.026
		c47.137,21.677,92.39,41.757,110.43,53.692l0.275-0.408c128.379,66.057,257.687,85.132,388.092,24.385
		c-48.754,172.437-95.632,292.228-101.611,313.378c-11.254,39.893-309.319,373.021-421.937,450.612
		c-296.286-95.611-456.365,125.833-370.234,170.207c75.018,38.585,350.872,35.771,445.218,0.563
		c93.712-34.97,539.443-481.01,602.159-578.731c13.533-21.107,73.977-131.242,124.153-273.569
		c72.021,39.942,155.542,81.664,241.694,120.615c39.824,148.509,101.372,320.973,97.883,336.862
		c-9.214,34.562-177.894,391.553-281.229,471.079c-274.814-95.548-428.534,124.265-347.553,169.293
		c71.008,39.45,330.376,36.566,417.97,1.829c91.117-36.145,376.854-519.159,409.742-607.638
		c10.184-27.43,10.516-130.834-2.385-254.973c98.074,32.276,184.85,52.595,244.184,52.595c22.844,0,45.83-2.883,83.092-17.14
		c4.775,1.091,9.58,2.117,14.412,3.137c-13.715,409.495-32.613,488.043-21.648,510.051c37.593,75.242,457.358,92.572,535.279,24.574
		c86.594-75.404-102.363-208.566-331.846-147.257c-6.956-91.047,4.691-268.976,12.406-361.007
		c110.557,67.879,258.271,94.95,390.119,94.036c-7.365,97.137-34.449,642.615,37.847,694.05
		c125.65,89.408,470.818,148.622,531.685,119.75c72.057-34.14-61.071-277.395-382.297-260.1
		c-26.368-178.464-5.739-400.943,12.976-575.468c1.976-0.422,3.96-0.788,5.936-1.224c0.359,0.042,0.689,0.07,1.048,0.112
		l2.074,1.772l1.195-1.414c103.785,11.57,209.503,18.378,312.645,6.105c11.829,289.928,19.089,450.007,29.301,470.396
		c23.329,46.638,178.605,67.879,313.004,67.879c100.014,0,281.425-12.21,246.328-106.084
		c-24.06-64.123-173.857-133.971-353.741-85.722c-10.881-99.339-21.17-235.532-31.616-396.329
		c27.234-9.896,54.847-20.931,83.605-33.134l1.59,1.632l2.497-2.413c158.321-2.616,321.873-54.895,461.267-147.475l2.152,1.351
		l1.856-2.968c45.872-12.273,88.24-26.129,127.325-41.096c26.621,524.926,36.63,989.739,51.955,1020.404
		c30.053,60.072,454.607,208.3,524.772,147.074C4900.908,4921.502,4733.494,4723.647,4475.723,4735.941z M4558.553,3577.839
		c-25.586,40.041-73.709,88.458-147.629,135.321c-3.446-59.692-7.09-121.086-10.768-180.356
		c49.401-27.922,93.226-59.312,131.389-94.127C4591.66,3483.001,4591.914,3525.665,4558.553,3577.839z M4589.719,3339.19
		c-47.854,65.051-111.759,120.819-191.208,167.218c-6.695-106.351-13.892-211.345-21.718-311.605
		C4528.853,3272.113,4593.045,3324.462,4589.719,3339.19z M4532.523,3139.029c-22.802,12.885-133.69,6.801-159.77,5.226
		c-4.214-51.54-8.617-101.583-13.222-149.719C4473.36,3063.905,4532.326,3115.192,4532.523,3139.029z M3840.296,2734.176
		c-47.834,48.038-93.769,94.957-143.916,145.801c-278.773-107.048-584.099-210.578-770.973-233.844
		c-12.561-90.885-43.227-180.131-105.584-248.199C3119.442,2459.165,3483.986,2579.477,3840.296,2734.176z M2625.146,3571.734
		c3.778-8.447,7.49-17.035,11.161-25.77c135.61-81.875,328.281-526.459,292.038-875.531
		c183.353,24.153,478.26,123.927,749.846,227.951c-292.481,295.829-602.546,431.678-764.017,725.074
		C2805.389,3607.323,2707.006,3589.198,2625.146,3571.734z M2902.302,3645.999c-3.657,7.266-7.167,14.517-10.5,21.782
		c-60.817-20.636-132.114-35.561-205.95-45.063c1.231-4.487,2.406-8.989,3.566-13.483
		C2753.834,3621.867,2825.496,3634.443,2902.302,3645.999z M2667.332,3604.825c-1.322,5.064-2.694,10.114-4.101,15.15
		c-19.362-2.187-38.831-3.988-58.277-5.451c3.369-6.759,6.702-13.645,9.994-20.622
		C2631.75,3597.532,2649.228,3601.175,2667.332,3604.825z M3149.693,2456.999c33.915-83.739,65.256-165.593,92.558-242.06
		c12.358,83.183,23.555,178.126,33.71,281.031C3233.298,2482.248,3191.146,2469.229,3149.693,2456.999z M3354.207,1809.72
		c39.183,156.984,70.397,430.68,96.511,745.492c-50.331-17.914-100.295-34.984-149.627-51.111
		c-12.343-126.488-26.2-241.356-41.862-337.706C3296.716,2057.547,3341.708,1912.196,3354.207,1809.72z M2951.858,2034.724
		c49.354-62.716,275.918-343.572,355.17-337.08c15.698,1.217,21.509,17.583,24.181,33.085
		c21.134,148.46-148.854,580.426-205.078,719.384c-120.636-34.942-235.047-63.103-338.782-82.972
		c-16.556-11.542-34.056-22.394-52.35-32.578C2804.101,2230.996,2877.937,2128.668,2951.858,2034.724z M2774.97,2387.383
		c297.363,252.201,32.339,1035.821-153.959,1140.119c-116.064,65.1-615.663-45.316-853.574-158.665
		c392.236-206.823,340.133-486.869,288.022-787.65c31.516-125.995,27.022-256.246-10.064-376.727
		C2217.423,2212.217,2573.627,2245.59,2774.97,2387.383z M1753.123,1067.626c485.055-442.903,1085.322-768.99,1749.073-840.146
		C2596.949,385.152,1810.01,917.035,1219.462,1772.521c-29.596,14.672-50.844,4.965-62.618-21.423
		C1185.794,1706.604,1393.319,1396.174,1753.123,1067.626z M2770.967,66.613C1924.843,293.571,1216.416,849.909,708.863,1685.399
		c-32.993,10.276-65.052,21.909-95.934,34.787C1067.232,945.175,1851.422,249.613,2770.967,66.613z M724.365,3582.91
		c-7.279-5.247-71.444-53.221-112.322-139.295l-9.403,3.678c0.936,3.024,17.338,54.417,53.418,102.012
		c-419.483-194.064-722.085-343.965-533.845-773.126c-8.912-103.249-9.46-241.44-68.209-375.742
		c0.175-2.455-0.745-4.733-2.603-6.548c-59.481-189.977-20.98-366.099,100.647-459.847
		c120.628-92.988,345.449-102.201,487.868,32.234l29.553,27.894l-21.804-34.288c-25.862-40.674-108.912-97.18-209.101-115.171
		c178.668-133.711,468.449-214.651,750.486-182.206c-17.822,24.842-42.25,59.818-58.468,85.575
		c15.221,48.579,53.727,70.2,105.1,42.777c23.406-33.788,44.042-63.272,75.89-106.822c92.883,22.232,181.242,57.132,263.187,104.67
		c-216.078-22.774-443.761,84.787-530.749,288.627l9.003,4.579c209.06-351.259,644.169-334.112,836.25-111.788
		c143.03,165.501,196.659,392.06,143.804,606.668l-2.419,0.323l7.118,41.117c60.317,345.984,122.563,703.587-766.972,890.034
		c19.16-25.693,31.404-49.831,47.727-79.561c-26.059,28.154-60.669,66.423-88.403,89.281c0,0,0,0-0.007,0.007l-3.862,3.088
		l0.014,0.014C1068.449,3649.051,926.067,3687.474,724.365,3582.91z M1237.931,3973.063
		c-61.803,96.314-499.037,535.174-590.478,569.314c-94.557,35.272-361.808,33.612-426.065,0.569
		c-50.458-25.974,81.045-216.873,362.871-122.971c127.543-83.633,430.011-430.406,441.258-470.305
		c6.12-21.543,56.942-151.484,107.504-334.4c18.533-10.261,35.969-21.536,52.559-33.211c34.365,32.29,97.088,73.956,175.524,118.477
		C1311.556,3842.426,1251.316,3952.209,1237.931,3973.063z M1898.799,4196.252c-32.268,86.848-309.467,559.614-396.539,594.155
		c-88.269,35.005-338.359,32.67-398.143-0.556c-45.555-25.299,73.709-218.335,339.865-123.09
		c112.329-76.86,288.76-448.643,300.057-491.033c15.797-59.319-264.932-652.631-52.25-708.222
		C1854.446,3424.997,1933.648,4102.477,1898.799,4196.252z M2190.676,3976.01c-70.672,12.533-207.145-29.632-275.327-52.546
		c-17.583-151.139-82.085-517.035-229.399-478.394c-128.59,33.563-102.729,229.87-69.947,358.166
		c-178.76-81.868-343.775-174.49-410.733-235.336c8.701-6.407,22.184-16.521,39.429-30.025
		c203.158-40.688,367.921-92.256,496.132-155.486c193.887,97.799,695.049,226.27,864.988,176.677
		c-8.244,18.631-16.718,36.594-25.439,53.784c-124.504-7.469-466.297-4.494-477.563,119.194
		c-8.103,88.979,181.742,133.064,269.743,149.396C2302.948,3938.649,2237.292,3967.612,2190.676,3976.01z M2559.37,4383.753
		c147.728,0,246.603,78.591,198.292,120.643c-70.672,61.668-470.439,37.713-497.827-17.049
		c-6.352-16.507,10.487-99.536,23.969-494.676c46.716,8.405,95.829,13.223,146.673,14.404c-8.989,107.287-22,292.706-9.769,399.493
		C2465.551,4393.108,2504.841,4383.753,2559.37,4383.753z M2442.504,3984c-55.928-0.668-109.621-5.978-160.354-15.445
		c37.016-18.533,77.901-45.393,119.708-81.995c39.253,6.45,80.202,11.647,121.479,15.48
		C2498.637,3932.875,2471.628,3960.53,2442.504,3984z M2466.382,3994.479c30.589-25.946,58.87-56.288,84.534-90.118
		c102.117,8.004,215.698,8.721,316.289-3.756c0.654,1.428,1.21,2.919,1.899,4.325c-11.007,52.996-18.554,126.178-23.041,180.068
		C2717.022,4085.512,2574.436,4060.825,2466.382,3994.479z M3011.811,4686.553c332.164-22.971,423.661,199.663,391.995,214.629
		c-47.441,22.507-381.897-27.726-508.327-117.675c-54.699-38.922-52.237-689.556,5.352-910.965
		c-225.826,32.832-662.885,3.411-760.775-103.791c-64.565-70.749,87.699-135.603,345.674-135.603
		c229.365,0,492.368,53.018,551.252,154.347C3072.712,3848.967,2955.199,4334.401,3011.811,4686.553z M2912.999,3675.412
		c92.362-199.367,272.296-337.157,447.306-473.681c232.634-181.488,269.13-221.128,396.314-350.422
		c54.649-55.521,398.424-415.079,460.079-398.91c58.609,15.424,35.328,119.982-0.289,178.45
		c-16.634,26.987-40.66,52.237-63.391,74.975c-277.395,277.212-176.531,140.294-636.004,890.013
		c-110.95,180.996-301.407,363.996-460.656,379.414c10.866-104.467,15.466-173.913,0.654-199.409
		C3032.848,3734.253,2980.618,3700.957,2912.999,3675.412z M3931.918,2973.443c28.533-38.993,63.286-81.066,123.463-141.194
		c42.439,20.418,82.163,40.217,119.124,59.291c8.792,58.405,16.866,123.857,24.301,194.549
		C4128.986,3055.613,4036.476,3016.191,3931.918,2973.443z M4201.577,3113.244c14.264,141.279,26.107,301.653,36.13,466.894
		c-228.127,81.305-503.72,99.114-745.554,94.106c72.725-101.125,288.746-487.72,425.517-680.989
		C4030.569,3039.373,4129.599,3081.686,4201.577,3113.244z M4073.507,2814.334c28.506-27.859,47.166-45.182,73.407-70.523
		c8.158,34.14,15.818,73.864,23.006,118.329C4135.921,2844.817,4103.208,2828.682,4073.507,2814.334z M3047.505,4057.716
		c2.701-24.842,4.621-42.46,6.422-59.319c13.138-1.055,26.473-3.249,39.942-6.372
		C3079.394,4015.629,3063.9,4037.608,3047.505,4057.716z M3581.328,4469.666l13.892-4.115
		c170.636-51.322,316.986,10.909,338.03,67.063c41.116,109.783-484.703,79.42-515.001,18.884
		c-7.926-15.839-17.091-223.935-26.846-462.773c54.474-8.074,104.664-21.079,155.445-38.332
		C3555.839,4188.191,3566.332,4337.861,3581.328,4469.666z M3646.752,3986.679c-185.406,78.794-311.345,105.444-574.455,77.529
		c19.553-24.919,37.727-52.272,54.333-81.615c133.274-45.59,263.377-172.978,348.171-284.78
		c101.154,2.497,200.577,1.076,302.138-6.091C3763.386,3797.68,3723.31,3911.655,3646.752,3986.679z M4107.45,3840.632
		c-128.899,85.828-278.83,136.222-426.199,143.445c69.356-79.069,106.772-188.874,119.539-294.135
		c127.022-10.135,256.324-29.828,378.042-65.734C4172.88,3700.261,4149.002,3773.625,4107.45,3840.632z M4140.724,3830.083
		c35.398-63.919,57.364-135.279,62.048-213.174c12.385-3.911,24.469-8.004,36.418-12.182c3.714,62.442,7.23,126.579,10.437,188.754
		C4216.123,3806.549,4179.879,3818.857,4140.724,3830.083z M4812.648,4968.239c-54.207,47.18-464.348-89.971-489.394-140.076
		c-23.449-46.884-41.103-1644.472-157.392-2102.877c51.582-51.16,91.222-96.758,105.838-175.341
		c103.185,388.282,131.58,1737.396,183.753,2210.17C4718.189,4741.814,4860.966,4926.045,4812.648,4968.239z"/>
</g>
</svg>
