<?xml version="1.0" encoding="utf-8"?>

<svg version="1.1" id="Layer_1" xmlns="http://www.w3.org/2000/svg" xmlns:xlink="http://www.w3.org/1999/xlink" x="0px" y="0px"
	 viewBox="0 0 3779.489 5000" enable-background="new 0 0 3779.489 5000" xml:space="preserve">
<g>
	<path d="M3725.111,305.405c-32.178-66.069-99.378-152.037-164.538-167.56c-424.956-95.021-750.559,648.617-815.881,810.202
		c-535.378-374.794-1271.903-353.579-1711.593-61.743C968.692,709.394,657.329-75.223,231.555,5.856
		c-116.78,26.808-349.39,287.61-159.62,806.765c113.616,310.883,86.276,588.79,178.029,776.212c-0.229,0.26-0.489,0.494-0.693,0.791
		c36.85,60.143,81.685,149.416,249.585,197.947c7.052,2.052,22.334,6.316,30.121,7.682
		c-5.815,246.81,80.091,498.114,209.885,705.997c-68.874,238.035-5.581,400.936,60.371,496.186
		c73.226,105.675,178.381,170.94,271.993,199.257c-64.765,212.475-113.708,509.324-77.681,731.643
		c-58.165,5.661-119.79,33.779-156.319,77.983c-115.588,140.011,52.936,411.021,183.449,536.67
		c-27.921-3.634-57.652-2.707-82.927-1.304c-147.698,8.04-179.74,131.544-122.225,187.416
		c54.593,53.122,156.035,36.937,223.29,27.575c177.269-24.67,207.246-72.625,275.899-78.367
		c53.708,92.012,113.962,180.154,184.709,259.404c0.587,0.68,1.267,1.236,1.922,1.786c8.398,15.746,20.739,27.84,35.941,36.938
		v0.006c1.094,0.68,2.225,1.329,3.355,1.99l0,0c1.645,0.927,3.361,1.811,5.08,2.67h0.204
		c52.275,26.214,146.394,26.351,189.894-7.373c34.187,17.928,112.473-21.667,109.235-94.304
		c38.5-72.712-36.85-157.975-117.535-179.877c54.049,8.213,115.471,10.981,165.65,12.7v0.006c9.375,0.315,5.877,0.296,15.264-0.012
		l0,0c55.167-1.891,110.026-4.294,165.255-12.693c-80.567,21.864-156.029,107.152-117.523,179.877
		c-3.244,72.607,75.048,112.232,109.235,94.305c43.772,33.939,137.885,33.457,189.882,7.373h0.21c1.719-0.859,3.423-1.743,5.08-2.67
		l0,0c1.132-0.649,2.261-1.304,3.355-1.99c0-0.006,0.006-0.006,0.006-0.006c15.19-9.084,27.538-21.197,35.935-36.937
		c11.316-9.461,98.067-109.458,186.625-261.191c67.156,5.611,101.207,54.048,275.899,78.367
		c67.256,9.368,168.698,25.554,223.296-27.581c57.269-55.637,26.58-179.308-122.225-187.416c-25.276-1.403-55.014-2.33-82.927,1.304
		c121.453-116.941,283.55-368.528,198.064-515.602c133.397-102.14,242.862-290.768,285.676-436.142l20.196-68.522l-37.413,44.297
		c82.605-164.687,95.083-301.941,107.418-414.018c-44.081,101.442-39.279,92.481-49.76,108.542
		c29.125-219.212,6.675-294.574-9.943-377.619l-16.006,66.032c-15.585,64.301-165.712,421.311-385.437,583.148
		c-42.127,32.438-81.859,60.457-82.556,60.958c-12.144-110.31-36.857-244.956-72.433-368.744
		c59.116-11.723,125.76-43.438,145.597-58.14c114.203-83.267,289.123-279.57,186.922-662.201
		c89.787-162.004,132.707-347.993,132.707-351.398c0.044-0.198,0.068-0.291,0.068-0.291c-0.687-3.275-2.026-6.236-3.708-8.893
		c13.781-78.812,18.38-155.547,16.148-229.537c427.237-93.933,292.46-503.546,478.338-965.594
		C3823.148,629.13,3782.171,422.433,3725.111,305.405z M532.077,1737.391c-0.006,0-0.012,0-0.012,0v0.025
		c-182.806-46.8-245.908-153.551-280.787-335.615c0.006,0.012,0.012,0.025,0.018,0.031c-0.006-0.012-0.006-0.019-0.006-0.025
		c35.985,68.404,89.663,128.367,180.804,172.306c0.038,0.031,0.038,0,0.038,0c34.7,16.939,78.33,30.788,119.191,35.472h0.006
		C542.754,1648.13,535.642,1694.25,532.077,1737.391z M565.491,1553.646c-66.044-5.302-147.216-40.305-211.264-104.205
		C232.583,1328.057,204.41,981.992,170.754,940.167c-12.206-47.937-26.945-97.011-45.273-147.154
		c-73.447-200.931-111.472-446.765,3.052-626.438c22.136-34.644,53.592-70.691,88.588-92.593
		c19.362-12.168,28.149-12.861,38.241-14.257c91.394-12.594,177.942,25.436,250.519,80.363c0,0,0,0,0.038,0.031
		c101.752,77.186,189.22,197.304,255.264,306.18c0.13,3.942,1.044,7.91,2.886,11.68c78.917,159.582,122.09,403.29,64.016,570.152
		C752.603,1245.822,639.765,1294.328,565.491,1553.646z M863.946,4711.883c32.612-74.851,75.617-46.25,77.286-52.022
		c0-0.006,0-0.012,0-0.019c0.18-0.668-0.044-1.354-0.705-1.588c-25.454-9.078-43.147,1.885-41.033-0.229
		c-0.012,0.012-0.018,0.025-0.05,0.025c-24.126,7.972-38.358,23.168-51.411,44.544c-12.489-10.53-18.669-24.899-19.065-37.443
		c18.268-11.155,25.578-48.345,77.192-54.124c1.749-0.21,1.958-3.158,0.106-3.188c-32.482-0.989-62.639,16.747-72.292,32.716
		c6.964-16.172,22.829-34.83,45.447-47.381c32.981-18.323,74.504-17.526,112.85-17.26c47.363,14.306,79.152,48.018,93.897,90.745
		c0,0.031,0.044,0.068,0.044,0.105c3.942,11.488,6.717,23.662,8.194,36.288C1035.987,4716.271,916.277,4734.612,863.946,4711.883z
		 M1104.143,4700.846c-3.257-55.866-42.085-104.019-94.199-125.043c14.919-0.21,29.731-1.13,44.205-3.806
		c12.687,9.708,25.683,18.212,38.89,24.769c4.833,2.397,11.044-3.053,8.713-8.157c-9.016-19.652-21.859-38.192-36.214-56.131
		c-112.986-98.025-240.538-283.179-224.081-433.077c6.409-82.576,76.933-121.792,157.338-141.642
		c7.02,36.041,15.957,70.296,31.375,114.031c0.038,0.031,0.038,0.031,0.038,0.068c29.163,83.039,166.386,395.578,261.26,565.758
		C1254.493,4644.776,1228.828,4671.127,1104.143,4700.846z M1753.707,4745.811c22.965,13.36,39.237,30.64,50.972,53.554
		c-15.987-15.171-36.788-29.131-60.112-39.236c-4.839-2.095-9.777,5.08-5.11,8.133c109.792,72.539,80.43,169.148,18.318,173.091
		c7.645-28.433-3.429-63.245-23.829-88.483c-43.61-53.95-96.071-29.54-93.761-21.877c0.543,1.916,2.812,3.603,5.074,3.053
		c37.61-9.214,83.657,35.8,79.633,75.555c-4.326,42.968-40.676,48.623-75.691,50.891c-39.564,2.558-72.699-7.972-103.376-26.363
		C1545.83,4827.526,1612.603,4746.527,1753.707,4745.811z M2152.015,4960.486c-35.021-2.268-71.371-7.922-75.685-50.891
		c-4.036-39.909,42.147-84.732,79.633-75.554c2.268,0.55,4.523-1.131,5.08-3.053c2.367-8.021-50.421-31.74-93.761,21.876
		c-20.4,25.239-31.48,60.05-23.829,88.483c-61.774-3.905-92.173-100.076,18.304-173.091c4.665-3.053-0.272-10.215-5.104-8.133
		c-23.743,10.283-44.421,24.355-60.118,39.236c11.611-22.594,27.556-39.891,50.786-53.45
		c139.943,1.805,205.925,83.577,204.893,190.098C2222.422,4953.236,2190.22,4962.951,2152.015,4960.486z M2917.092,4590.517
		c20.115,9.764,40.917,28.724,50.137,50.032c-18.372-30.214-79.807-38.68-73.2-30.108c1.118,1.452,9.072,0.364,23.36,5.729
		c30.454,11.445,40.991,40.497,54.852,48.976c-0.433,13.367-6.557,26.901-19.064,37.443c-12.49-20.412-28.316-36.906-51.411-44.544
		c-0.038,0-0.068-0.031-0.068-0.031c-13.238-4.351-26.987-4.765-41.015,0.241c-1.409,0.513-0.717,2.917,0.754,2.565
		c28.36-6.891,51.267,7.755,66.292,30.893c3.603,5.525,5.964,11.958,9.535,20.165c-53.004,23.032-174.191,3.905-230.458-8.844
		c1.471-12.625,4.252-24.799,8.194-36.288c0-0.031,0.038-0.068,0.038-0.105c14.751-42.727,46.541-76.438,93.897-90.745
		C2844.955,4575.654,2885.216,4575.055,2917.092,4590.517z M2814.192,3628.193c18.749-12.644,72.378-51.04,97.227-71.105
		c162.74-120.006,301.508-354.167,375.283-539.067c8.639,117.374-11.97,245.636-29.354,354.142
		c33.847-41.609,37.882-46.454,44.309-54.778c-36.714,170.786-85.739,244.444-193.102,444.009
		c83.348-87.259,84.027-87.815,99.773-104.934c-53.684,129.635-136.976,261.852-247.391,346.615
		c-36.825-42.27-96.61-69.233-153.278-74.751C2823.548,3830.211,2823.282,3728.553,2814.192,3628.193z M2802.307,3958.264
		c-0.779-0.315-1.304-0.507-1.304-0.507c0.451,0.105,0.878,0.235,1.341,0.352c0.03-0.124,0.056-0.235,0.074-0.352
		c13.058,4.271,38.772,10.03,68.479,24.682c82.025,37.067,102.363,105.02,83.855,193.46
		c-28.328,174.89-185.235,324.664-215.614,352.226c-15.783,19.275-29.923,39.236-39.668,60.482
		c-2.33,5.111,3.875,10.555,8.713,8.157c13.2-6.557,26.202-15.06,38.889-24.769c14.473,2.676,29.286,3.597,44.205,3.807
		c-52.121,21.023-90.949,69.171-94.199,125.043c-119.184-28.415-153.983-56.769-187.317-63.245
		c96.276-172.733,233.097-485.568,261.26-565.758c0-0.031,0-0.031,0.038-0.068
		C2786.395,4028.189,2795.331,3993.996,2802.307,3958.264z M2659.263,4242.011c-64.98,147.439-125.104,279.267-200.072,409.068
		h-0.024c-28.674,49.377-147.717,244.802-194.912,277.209c-2.539-104.686-67.601-183.819-193.374-193.472
		c45.163-16.915,97.147-16.896,135.228-6.186c3.535,3.566,10.104,6.272,16.116,5.481c0.253,0.105,0.537,0.235,0.543,0.241
		c12.304,5.03,24.009,11.748,33.718,20.752c4.122,3.826,13.114,0.105,9.461-5.963c-0.006-0.006-0.012-0.019-0.018-0.025
		c-27.691-46.25-40.131-12.131-14.27-66.668c27.284-57.849,17.236-248.386,13.268-312.168
		c-8.146-133.015-24.046-271.536,3.497-410.57c0.327-1.756-1.866-2.459-2.781-1.78c-3.072,1.557-21.815,66.724-30.021,116.855
		c-29.057,177.51,1.31,364.864-16.859,544.685c-19.288,5.661-146.951,72.54-399.897,52.782c-1.687-0.426-37.153-2.478-78.236-8.615
		c-0.006,0-0.018,0-0.03,0c-99.971-14.925-139.108-38.574-158.137-44.167c-22.254-220.28,28.081-450.683-46.021-660.619
		c-0.407-1.113-1.589-1.31-2.515-0.945c-6.012,2.323,17.001,47.245,14.14,203.286c-2.936,159.57-25.622,267.074-13.3,451.616
		c4.994,75.345,23.23,72.131,29.219,104.977c-11.322,8.299-21.092,18.619-28.705,31.35c-1.557,2.589-0.742,4.709,0.952,6.038
		c8.262,6.445,9.449-7.428,42.227-20.82c0.05-0.037,0.112-0.05,0.167-0.068c0.13-0.056,0.26-0.118,0.377-0.167
		c6.279,0.822,12.781-2.114,16.116-5.481c38.754-10.914,92.073-9.826,134.789,6.025c-126.186,8.689-192.347,86.258-196.012,191.291
		c-44.686-32.852-162.203-223.748-191.828-274.861h-0.038c-73.948-128.034-135.956-263.007-200.665-410.396
		c-15.4-20.035-211.512-290.193-77.106-871.154c12.33-55.353,27.117-109.748,43.932-163.456
		c144.967,29.867,265.647-23.761,376.89-117.936c0.852,0.945,1.743,1.903,2.719,2.763c216.53,177.25,269.342,79.095,533.456,112.306
		c248.701,31.202,340.694-54.135,368.034-90.627c90.646,78.911,192.94,128.923,311.167,118.208
		c2.503,8.306,5.036,16.593,7.434,24.936c-0.118-0.643-0.21-1.088-0.21-1.088c2.701,9.4,9.17,33.618,9.362,34.329
		C2896.364,3950.014,2659.263,4242.011,2659.263,4242.011z M2119.058,4691.44c28.637-5.487,65.431-12.761,94.107-26.957
		c-0.309,3.158-0.445,6.341-0.481,9.499c-3.19,8.677-5.828,17.625-8.262,26.814C2178.046,4691.341,2148.104,4688.9,2119.058,4691.44
		z M1682.144,4691.44c-29.051-2.54-58.98-0.105-85.362,9.362c-2.435-9.196-5.08-18.144-8.262-26.814
		c-0.038-3.158-0.167-6.341-0.481-9.499C1615.303,4677.981,1652.827,4685.835,1682.144,4691.44z M2165.524,2898.947
		c89.83,67.286,122.583,115.371,181.669,174.29c-16.104,28.539-58.938,50.458-90.021,60.828h-0.038
		c-67.25,22.452-148.217,21.277-215.757,14.084c-301.279-34.576-322.605,56.447-513.372-98.136
		c60.124-55.217,117.936-115.026,187.138-167.425c0.006,0,0.006,0,0.006,0C1778.963,2942.885,2073.995,2962.037,2165.524,2898.947z
		 M1911.021,2203.561c-68.25,3.38-124.351-12.057-125.315-34.49c-0.958-22.433,53.598-43.352,121.842-46.726
		c68.25-3.38,124.351,12.057,125.315,34.49C2033.82,2179.255,1979.277,2200.18,1911.021,2203.561z M3084.077,2345.147
		c-78.014,192.595-82.234,114.772-61.743,200.653c90.714,380.116-121.026,618.156-339.366,629.361
		c0.018,0.056,0.024,0.111,0.05,0.161c-143.693,7.713-253.683-94.242-350.323-200.486
		c-211.141-232.257-344.626-184.32-364.852-343.877c-0.766-25.517-6.983-66.087-8.886-192.323c0.006,0,0.006,0,0.012,0
		c118.832-20.783,218.797-132.483,217.153-241.854c-1.804-120.025-111.175-138.756-244.765-136.42
		c-133.589,2.33-273.47,26.765-271.665,146.796c1.693,112.436,114.802,222.635,238.918,234.203
		c9.683,154.267,8.819,162.765,12.18,192.255c0.278,22.971-5.499,76.89-61.675,106.528c-14.102,7.434-36.708,14.424-80.733,39.069
		c-247.713,138.737-367.541,422.386-642.474,372.372v-0.006c-12.062-2.194-24.534-5.216-37.283-8.998
		c-0.006,0-0.006,0.006-0.006,0.006c-210.48-62.416-362.862-273.829-312.088-552.824c17.575-96.411,28.223-80.461,17.148-108.524
		c-184.703-289.643-267.21-613.682-162.642-939.372c31.48-97.975,79.825-190.58,124.511-253.33c0.038-0.068,0.068-0.13,0.13-0.204
		c65.685-94.255,138.681-232.325,151.023-346.244c7.873-72.576,5.809-149.706-5.278-226.256
		c42.646,94.725,71.427,171.564,83.336,204.701c-26.937,20.48-41.998,34.514-44.656,37.073
		c-16.018,15.283-9.022,41.967,11.747,47.968c9.449,2.726,20.017,0.494,27.624-6.761c3.146-2.948,318.88-296.601,911.977-272.685
		c352.875,14.269,652.524,125.76,916.149,340.929c12.168,9.974,30.151,8.176,40.095-4.066c9.974-12.168,8.138-30.121-4.03-40.095
		c-16.964-13.843-34.057-27.259-51.317-40.249c16.667-41.609,68.281-165.07,145.442-302.831
		c-55.118,164.439-61.125,299.555-41.67,383.644c18.917,82.13,102.381,223.105,174.123,417.534c0,0.068,0.038,0.068,0.038,0.099
		c0.865,2.385,9.745,26.721,9.745,27.296c6.643,18.7,16.661,49.544,21.759,66.507
		C3116.281,1653.555,3238.567,1953.475,3084.077,2345.147z M3212.971,1857.094c-2.601-33.402-7.112-70.981-12.322-103.524
		c138.775,22.007,245.006-151.77,307.651-278.42C3468.223,1680.11,3417.381,1808.212,3212.971,1857.094z M3722.257,578.652
		c-1.934,52.219-7.317,105.799-25.819,181.428v0.031c-10.852,44.037-21.338,75.876-34.286,113.425c0,0,0,0,0,0.031
		c-2.126,5.926-10.018,27.234-9.875,26.864c-17.607,46.472-53.053,125.599-88.292,280.824
		c-3.597,5.543-82.877,266.079-185.401,403.469c-105.465,148.922-170.618,107.64-188.627,110.069
		c-15.462-75.295-34.143-139.269-59.073-211.882c-112.245-321.815-198.601-367.243-187.7-554.035
		c15.549-271.659,205.016-546.644,208.847-555.92c82.118-90.04,200.455-184.03,322.619-186.131
		c22.531-0.89,64.289,1.372,84.36,11.402c5.889,3.133,19.893,11.822,21.568,13.664
		C3685.796,290.351,3725.866,443.914,3722.257,578.652z"/>
	<path d="M1530.201,2401.687c-24.262-7.014-49.63,6.983-56.645,31.258c-11.384,39.372,30.72,72.249,66.026,52.776
		C1574.949,2466.186,1569.479,2413.039,1530.201,2401.687z"/>
	<path d="M1658.229,2533.484c-50.063,3.622-57.423,75.474-8.813,89.528c16.03,4.629,34.113,0.389,46.67-13.287l0.044-0.031
		c3.226-3.572,5.883-7.818,7.182-10.728c0,0,0.024,0,0.024-0.025c15.376-31.517-9.585-68.305-44.816-65.488
		C1658.42,2533.416,1658.321,2533.44,1658.229,2533.484z"/>
	<path d="M1513.008,2638.535c-36.658-10.617-68.733,25.757-55.501,60.105c0,0.031,0,0.031,0,0.031
		c15.721,41.226,74.659,38.407,86.771-3.473C1551.299,2670.924,1537.283,2645.556,1513.008,2638.535z"/>
	<path d="M1333.608,2498.735c-15.727-4.536-31.937-0.093-42.778,9.473c-24.639,20.474-20.709,65.642,16.049,78.032
		c8.819,2.627,16.785,2.428,17.903,2.021C1374.06,2584.641,1382.761,2512.955,1333.608,2498.735z"/>
	<path d="M1304.463,2688.178c-43.017-12.458-75.974,38.216-48.61,72.273c13.435,17.235,38.067,22.723,58.01,11.742
		C1349.267,2752.689,1343.761,2699.536,1304.463,2688.178z"/>
	<path d="M2378.266,2427.599c-9.856-27.117-42.195-38.55-66.964-23.335c-23.737,14.591-28.6,46.949-12.057,67.126v0.031
		c0.693,0.914,1.446,1.804,2.268,2.658v0.037C2333.629,2510.403,2395.779,2475.603,2378.266,2427.599z"/>
	<path d="M2241.593,2567.046c-25.338-54-104.025-18.793-84.571,34.737c9.511,28.638,47.944,40.324,72.533,19.3c0.006,0,0,0,0.006,0
		c0.006,0,0.006,0,0.006-0.006c0.024,0,0.024,0,0.024,0C2246.216,2606.363,2249.743,2584.369,2241.593,2567.046z"/>
	<path d="M2352.774,2635.39c-23.787,8.689-35.967,34.941-27.352,58.659c8.627,23.656,35.484,37.054,60.852,26.283
		c23.699-10.048,33.075-35.794,25.127-57.572C2402.781,2638.999,2376.529,2626.763,2352.774,2635.39z"/>
	<path d="M2553.649,2569.797c20.498-7.063,34.867-29.978,28.57-54.753v-0.031c-8.226-29.132-39.502-41.764-64.888-29.07
		c-19.949,10.092-29.009,32.723-23.552,52.591c0,0,0,0,0,0.025C2500.188,2563.629,2527.7,2579.214,2553.649,2569.797z"/>
	<path d="M2602.884,2674.304c-36.807-21.463-80.629,14.974-66.032,55.18c9.19,25.294,39.199,38.432,65.284,24.311
		C2633.45,2736.121,2632.992,2691.669,2602.884,2674.304z"/>
	<path d="M2302.179,2013.147c10.024,6.223,22.414,5.512,31.498-0.865c5.537-3.881,8.25-9.022,7.817-8.331
		c6.847-11.099,5.284-26.758-4.635-35.695c-4.665-9.326-162.394-94.713-367.744-110.186
		c-185.198-14.028-382.866,31.184-533.432,109.89c-22.13,11.247-20.226,43.66,3.27,52.108c16.29,5.945,20.492-1.835,67.849-22.377
		c147.703-65.68,316.457-95.923,477.318-80.054c0,0.031,0,0.031,0.038,0C2131.214,1932.025,2274.624,1990.944,2302.179,2013.147z"/>
	<path d="M957.181,1585.559c-194.695,0-353.091,158.389-353.091,353.085s158.396,353.085,353.091,353.085
		c194.689,0,353.085-158.396,353.085-353.085C1310.26,1743.954,1151.871,1585.559,957.181,1585.559z M1079.035,1763.396
		c20.48,121.879-131.439,194.56-213.68,103.302c-20.091,33.031-31.881,71.68-31.881,113.177
		c0,193.997,235.446,290.996,372.353,154.767c-187.441,237.275-565.641,101.108-565.641-195.999
		c0-174.791,142.204-316.995,316.994-316.995c193.15,0,344.037,173.944,312.515,367.904
		C1274.781,1871.259,1187.751,1776.936,1079.035,1763.396z"/>
	<path d="M2797.87,1585.553c-194.695,0-353.091,158.395-353.091,353.091s158.396,353.085,353.091,353.085
		c194.689,0,353.085-158.396,353.085-353.085S2992.561,1585.553,2797.87,1585.553z M2549.219,2134.643
		c136.859,136.197,372.353,39.31,372.353-154.768c0-41.497-11.785-80.146-31.881-113.177
		c-82.056,91.042-234.303,19.052-213.674-103.302c-109.259,13.608-195.876,108.586-190.667,226.17
		c-31.572-194.257,119.512-367.917,312.521-367.917c174.79,0,316.988,142.204,316.988,316.995
		C3114.872,2236.147,2736.505,2371.702,2549.219,2134.643z"/>
</g>
</svg>
