<?xml version="1.0" encoding="utf-8"?>

<svg version="1.1" id="Layer_1" xmlns="http://www.w3.org/2000/svg" xmlns:xlink="http://www.w3.org/1999/xlink" x="0px" y="0px"
	 viewBox="0 0 4576.761 5000" enable-background="new 0 0 4576.761 5000" xml:space="preserve">
<g>
	<path d="M4572.287,1888.038c-25.962-200.577-162.807-392.899-305.088-480.253c-103.433-63.125-264.862-137.478-453-140.087
		c118.731-337.605-29.133-729.968-267.894-806.949c-179.744-57.644-365.991-30.113-530.775,57.711
		c-471.912-717.926-1775.88-666.439-2161.523,7.276c-167.222-93.397-359.403-124.218-544.125-64.985
		C-96.972,591.966-196.804,1564.665,592.708,1709.246c-50.436,324.656,266.133,595.508,579.932,728.161
		c-73.612,151.233-120.056,369.399-132.585,624.013c-114.012-46.424-264.378-88.637-384.308-58.677
		c-202.292,50.554-280.119,227.751-231.153,526.365c49.735,304.182,262.267,523.083,309.655,568.6
		c16.359,34.323-10.486,120.743-42.559,180.705c-73.02,29.577-154.205,66.137-193.846,79.297
		c-53.866,17.774-98.19,40.997-136.473,90.029c-45.491,59.875-51.487,137.69-25.726,203.186
		c1.914,147.911,134.896,216.425,282.701,207.242c172.604,128.879,359.352,70.395,522.501-67.29
		c27.167,134.169,199.021,181.83,330.649,156.542c3.675-0.278,20.496-4.449,27.009-6.401
		c109.907,91.397,298.834,68.865,420.477-14.862c30.868-4.302,58.478-12.2,82.973-23.394c24.481,11.193,52.091,19.098,82.966,23.394
		c2.117,1.457,4.315,2.846,6.481,4.264l6.633,6.48l1.18-1.403c121.378,75.956,300.508,93.39,406.184,5.515
		c7.745,2.324,23.903,6.168,27.009,6.401c128.813,24.751,303.036-20.515,330.675-156.529
		c163.97,138.366,350.492,195.717,522.471,67.276c149.36,9.301,280.801-60.471,282.714-207.242
		c43.148-109.708-1.616-240.229-162.176-293.2c-39.686-13.173-119.917-49.351-193.865-79.304
		c-32.067-59.968-58.908-146.381-42.559-180.705c243.003-233.385,352.253-565.084,318.408-813.389
		c168.809-206.879,184.466-454.747,44.45-720.145c-134.864-255.566-337.605-497.179-212.108-745.848
		c116.035-229.889,458.611-280.993,669.728-146.236c192.136,122.67,186.822,324.564,38.38,445.712
		c-322.691,263.411-60.398,589.26,302.903,195.486C4543.808,2191.531,4592.531,2044.474,4572.287,1888.038z M3536.676,490.638
		c358.217,115.454,479.738,994.014-215.166,1173.892c-2.715-11.982-6.209-26.002-9.626-37.924
		c-31.993-111.733-110.615-140.867-145.097-148.361c0.537-4.362,0.941-8.587,1.451-12.921
		c516.867-54.202,459.348-666.075,208.036-746.617c-100.753-32.384-191.315-16.252-257.942,8.963
		c-22.7-64.985-51.151-125.332-85.991-182.591C3187.26,463.126,3364.292,435.311,3536.676,490.638z M3128.358,757.671
		c61.497-23.34,145.64-38.865,238.322-9.083c218.344,70.003,280.723,629.024-194.871,684.729
		C3200.386,1166.358,3187.24,944.299,3128.358,757.671z M598.646,1678.425C-164.229,1538.96-52.176,610.462,319.487,490.638
		c175.057-56.182,358.285-27.486,519.462,62.65c-30.92,59.134-54.208,121.968-71.931,186.848
		c-68.078-31.166-171.272-58.664-287.104-21.435c-255.786,81.912-307.173,702.357,220.15,747.821
		C652.842,1527.66,615.923,1601.657,598.646,1678.425z M720.409,1240.473c5.046,57.585,15.525,177.421,6.936,193.844
		c-0.12,0.113-0.941,0.966-2.191,2.303c-517.714-27.319-461.44-615.718-235.656-688.039
		c90.736-29.173,184.088-18.091,269.556,22.341C726.505,904.271,707.341,1090.8,720.409,1240.473z M625.093,1706.777
		c25.71-148.606,123.108-248.874,124.478-250.27c28.512-28.643-3.924-244.758-3.184-292.849
		c3.536-222.667,32.649-461.374,150.731-648.943c437.039-694.307,1882.565-657.429,2191.053,223.554
		c84.792,242.169,75.823,513.609,43.445,767.759c79.291,4.747,129.165,56.248,150.062,129.197
		c49.78,173.767,19.41,333.594-90.258,475.043c-217.61,280.675-739.277,459.077-1297.387,443.817
		C1111.951,2532.809,554.519,2114.624,625.093,1706.777z M2260.647,4156.875c-36.218,16.318-103.333,66.74-140.675,103.401
		c-26.301-253.071,221.395-591.339,322.446-793.212l2.124,0.774c41.997-114.064,161.885-173.536,163.062-174.098
		c0,0-90.1,24.354-150.624,96.409c-76.185-298.165-48.895-780.118-48.542-785.13c0,0-14.953,131.673-18.754,300.694
		c-0.113-5.508-0.22-10.975-0.304-16.404c-82.316-155.02-197.094-265.603-322.856-305.281
		c253.02-11.035,518.774-62.656,748.615-164.122c90.61,184.836,139.292,475.911,132.792,812.998
		c-5.217,273.653-202.331,914.056-321.408,1110.919c-36.787-74.929-120.451-198.108-152.021-205.681l-12.531-3.032
		c-22.998,62.463-73.088,136.213-110.906,190.787c-79.734-123.207-70.399-147.633-68.54-178.937L2260.647,4156.875z
		 M2089.104,4214.697c-57.948,9.942-112.263,10.856-165.189,4.302c-6.044-87.414-35.998-180.419-76.676-272.785
		c93.92,14.961,213.492,12.194,312.422-12.38C2118.954,4029.471,2090.536,4125.404,2089.104,4214.697z M2089.854,4245.552
		c-26.081,29.994-57.473,67.739-87.908,108.325c-26.282-35.072-53.3-68.023-76.999-95.695c0.058-3.284,0.1-6.566,0.074-9.876
		c53.685,6.162,108.543,5.012,164.746-4.204C2089.792,4244.599,2089.818,4245.076,2089.854,4245.552z M1619.881,2815.571
		c239.237-354.379,590.24-256.037,769.065,137.703c-1.244,143.799,6.526,324.975,44.987,463.524
		c-49.832,114.951-174.475,296.662-259.18,482.815c-105.644,30.808-239.732,34.091-342.101,14.385
		c-82.627-177.096-204.946-358.576-252.451-468.126C1632.04,3259.144,1629.38,2991.734,1619.881,2815.571z M2843.003,2407.268
		c104.583-48.735,196.328-106.227,271.042-171.067c47.689,142.728,118.372,264.113,161.064,337.353l0.007,0.006
		c89.631,153.596,172.833,280.636,96.277,435.814c-124.734-39.188-271.838-1.753-396.19,47.49
		C2967.061,2854.885,2929.887,2581.253,2843.003,2407.268z M1199.29,2448.423c206.953,83.17,436.244,126.516,660.858,135.916
		c-90.717,28.743-174.145,94.132-242.964,185.901c-5.395-82.588-11.471-136.147-11.471-136.147
		c14.287,200.22,6.733,596.502-56.313,813.7c88.209,205.786,373.04,569.803,344.793,841.549
		c-37.343-36.66-104.458-87.082-140.675-103.407l-21.892-9.923c1.794,30.073,12.001,54.5-68.534,178.938
		c-37.785-54.534-87.902-128.31-110.906-190.787l-12.531,3.032c-31.563,7.56-115.237,130.746-152.02,205.674
		c-119.08-196.863-316.204-837.272-321.414-1110.919C1059.708,2924.537,1108.509,2633.231,1199.29,2448.423z M761.608,4079.953
		l-3-3.84c-437.495-417.353-496.807-1304.868,279.928-979.763c-6.678,182.638-2.269,287.301,61.119,546.874
		c30.661,125.537,69.752,258.698,110.702,379.865c-414.507-168.101-523.981-412.388-525.135-415.022
		c0,0,92.437,279.92,538.892,455.079c28.179,80.7,56.875,154.748,84.017,215.942c1.319,21.54,2.932,39.037,4.952,52.171
		c-69.274-1.086-191.971-29.167-228.328-80.046l-12.887-17.913c-37.022,48.76-92.854,111.489-140.006,135.644
		c5.741-44.16,1.623-103.142-7.997-131.083l-7.137-20.712c-68.592,49.528-152.605,84.825-207.454,95.543
		C747.124,4249.478,791.61,4133.546,761.608,4079.953z M1136.801,4761.763c-156.82,137.34-337.427,202.205-505.725,75.021
		c-25.335-36.244-31.418-86.328-3.588-132.897c37.824-63.297,164.81-134.585,214.332-138.464
		c11.122-0.868,12.147-18.88,0.252-19.462c-20.402-1.02-69.843,6.222-162.651,70.884c-98.614,68.699-112.199,150.983-78.57,217.417
		c-125.959,3.336-239.35-55.136-240.381-184.22c45.708-164.956,236.945-215.273,405.874-203.708
		c11.698,0.801,13.55-17.245,1.875-18.807c-158.76-21.189-354.312,28.313-419.417,181.009
		c-9.697-47.403-0.575-93.734,20.467-128.263v-0.186c49.415-84.487,141.635-97.647,184.67-115.52
		c25.645-10.532,8.048-5.792,111.62-45.213c-1.416,1.768,3.404-3.932-20.599,24.856l30.112,3.19
		c51.687,5.6,160.667-39.56,223.004-77.908c12.186,75.464-3.985,121.028-9.842,140.226l23.163-1.059
		c50.95-2.436,125.661-80.305,160.906-122.869c56.022,52.077,171.537,79.601,256.407,77.927
		c-15.728,64.596-10.896,125.371,0.006,190.105C1194.762,4545.066,1128.003,4648.36,1136.801,4761.763z M1942.287,4896.693
		c51.535-68.667,55.573-148.341,22.109-214.2c-5.343-10.526-21.805-2.681-17.034,8.328c36.218,83.739,5.844,169.955-50.255,220.171
		c-108.194,70.441-272.261,92.186-373.383,18.178c15.153-6.825,32.827-15.933,52.098-28.074
		c75.483-47.55,116.11-155.166,130.164-242.44c1.926-11.976-16.139-14.869-18.35-3.058
		c-21.672,115.813-83.726,225.322-195.718,261.504c-105.133,31.848-281.457,2.356-321.233-109.377
		c-32.549-101.692,11.572-239.355,157.577-229.101c-48.959,83.078-30.306,191.355-23.162,223.389
		c2.615,11.749,20.389,7.89,18.356-3.687c-4.939-28.048-17.186-121.201,19.455-194.943c23.605,58.915,65.376,108.511,81.476,126.336
		c8.084,8.95,21.857-2.906,14.212-12.232c-44.114-53.804-80.503-117.049-87.983-186.808l-0.417,0.047
		c-5.831-37.991-13.472-97.436,2.091-161.355c16.588,29.954,24.559,40.234,41.544,64.23l9.745-25.175
		c25.299-64.628,101.038-174.165,132.918-205.178c28.709,63.112,89.696,149.591,127.277,203.376
		c32.074-48.429,85.183-126.662,96.39-184.458c46.212,27.293,115.68,84.666,131.738,108.179l19.542,28.472
		c6.746-34.138,9.015-43.511,11.371-65.694c64.264,77.331,145.343,186.358,168.007,265.092
		C2134.495,4709.951,2101.409,4860.496,1942.287,4896.693z M2030.037,4887.319c5.944-3.806,11.698-7.804,17.157-12.121
		c4.244,7.116,9.002,14.285,14.403,21.481C2050.504,4894.157,2040.06,4890.952,2030.037,4887.319z M2833.303,4807.445
		c-39.97,112.297-217.093,141.304-321.427,109.635c-111.846-36.196-173.926-145.561-195.617-261.478
		c-2.256-12.074-20.211-8.506-18.35,3.051c14.061,87.326,54.677,194.877,130.164,242.44c19.271,12.141,36.945,21.243,52.098,28.074
		c-101.274,74.127-265.389,52.143-373.389-18.185c-3.646-3.263-23.751-22.076-40.917-52.468
		c77.478-78.239,78.848-202.53,48.72-307.153c-15.26-52.99-54.196-116.97-97.476-176.853c25.709-34.839,52.434-67.918,76.039-95.8
		c1.859,12.611,2.033,12.835,9.587,51.024l19.542-28.471c16.058-23.513,85.526-80.886,131.738-108.18
		c11.206,57.796,64.283,135.976,96.39,184.458c38.406-54.97,98.701-140.589,127.271-203.376
		c31.88,31.014,107.615,140.549,132.924,205.179l9.745,25.174c14.691-20.746,19.542-27.094,29.291-43.101
		c16.892,61.946,12.069,118.374,2.444,179.771c-10.149,65.382-44.758,125.054-86.89,176.429c-7.605,9.26,6.4,20.857,14.187,12.26
		c15.98-17.667,57.942-67.401,81.634-126.516c36.635,73.743,24.394,166.902,19.448,194.943c-2.059,11.645,15.774,15.219,18.35,3.687
		c7.143-32.034,25.803-140.318-23.163-223.389c54.38-3.819,103.2,12.108,134.818,55.421
		C2843.533,4679.367,2852.467,4747.544,2833.303,4807.445z M3328.83,4347.409l30.112-3.19
		c-26.068-31.279-18.078-21.713-20.593-24.856c101.5,38.606,93.979,37.997,111.588,45.192
		c38.626,16.066,118.599,28.689,168.79,92.808c32.63,38.546,48.025,94.258,36.376,151.173
		c-65.143-152.776-259.943-202.311-419.417-181.002c-11.756,1.569-9.81,19.601,1.875,18.807
		c170.59-11.67,360.383,39.5,405.88,203.714c-0.979,127.972-113.673,187.569-240.387,184.212
		c84.168-166.267-176.198-291.585-241.267-288.301c-11.73,0.59-11.003,18.595,0.259,19.462c15.525,1.204,60.657,10.644,148.3,71.711
		c94.237,65.673,101.461,144.144,62.477,199.671c-167.616,126.627-348.303,62.821-505.693-75.015
		c8.824-113.979-58.592-216.742-191.933-207.958c11.921-70.262,15.179-127.754,0.006-190.104
		c87.407,1.721,201.704-27.088,256.4-77.927c35.251,42.558,109.959,120.433,160.906,122.862l23.162,1.059
		c-4.751-15.563-22.726-60.478-9.849-140.226C3168.154,4307.843,3277.136,4353.009,3328.83,4347.409z M3547.281,3523.932
		c-33.906,206.951-160.036,416.757-302.017,552.196l-2.987,3.84c-29.986,53.593,14.478,169.51,52.35,232.748
		c-50.285-9.823-135.028-43.233-207.454-95.543l-7.137,20.712c-9.626,27.941-13.75,86.924-7.997,131.083
		c-48.303-24.751-103.346-87.36-140.006-135.644l-12.897,17.913c-36.321,50.819-157.528,78.934-228.328,80.046
		c2.23-14.597,3.992-34.529,5.382-59.464c26.744-57.995,55.301-129.614,83.58-208.647
		c446.458-175.151,538.892-455.079,538.892-455.079c-1.151,2.634-110.55,246.776-524.744,414.871
		c41.406-119.678,81.444-253.052,113.482-380.222c70.102-278.246,73.599-386.836,68.996-550.945
		c106.94-43.603,251.39-85.547,363.87-57.512C3525.883,3080.709,3593.625,3240.846,3547.281,3523.932z M4414.064,2297.281
		c-339.505,367.924-567.665,81.344-270.587-161.144c137.207-111.979,154.697-283.277,50.045-405.615
		c-197.838-231.399-652.393-203.748-794.219,77.185c-131.453,260.452,79.563,515.96,212.306,767.522
		c131.376,249.034,120.942,481.861-28.942,677.626c-22.561-111.376-81.528-193.904-188.303-235.397
		c122.516-249.165-137.352-416.055-260.935-798.6c153.32-141.41,230.041-317.991,194.315-523.459
		c222.998-57.227,394.208-192.985,477.136-402.861c195.32,0.297,360.463,80.807,449.994,135.445
		C4468.828,1558.238,4712.135,1974.313,4414.064,2297.281z"/>
	<path d="M2853.615,2245.104c280.151-194.413,402.102-462.359,124.436-654.504c115.328-1208.844-906.912-880.241-998.786-710.194
		C1483.98,374.164,735.646,980.344,967,1558.31c-297.754,97.944-167.021,506.751,97.951,676.818
		C1634.762,2600.841,2336.761,2603.76,2853.615,2245.104z M1081.923,2208.709c-241.031-154.676-382.388-544.543-89.57-625.271
		l17.39-4.806C754.658,988.896,1505.306,405.21,1976.701,923.433l42.553,46.774l-15.722-61.239
		c-2.224-8.666,8.889-27.736,38.752-50.819c221.084-170.915,1009.485-327.729,902.704,747.994
		c276.214,185.166,157.205,428.249-109.264,613.156C2328.612,2571.204,1640.202,2567.028,1081.923,2208.709z"/>
	<path d="M2422.578,1836.041c30.8,50.475,35.051,56.909,46.875,78.41c-36.408,22.679-227.135,134.413-482.139,155.225
		l-7.725-225.335c78.754-15.974,234.815-142.238,168.027-223.038c0,0-197.201-185.815-378.403,17.503
		c-77.953,87.474,74.837,178.805,170.364,202.715l7.87,231.961c-155.372,3.515-349.832-29.836-526.544-135.353
		c13.511-24.884,15.379-27.379,49.324-83.018c-70.803,31.589-124.927,131.52-110.709,212.545
		c18.117-37.772,25.425-61.431,54.797-117.168l-15.741,31.437c36.308,21.685,72.545,40.413,108.588,56.565
		c102.573,158.402,177.349,397.883,438.39,397.883c270.535,0,329.356-235.046,421.767-408.463
		c60.735-25.897,104.836-50.39,127.62-63.926c18.76,38.739,23.415,53.467,38.341,84.613
		C2547.289,1968.785,2494.699,1868.211,2422.578,1836.041z M1904.091,2404.713c-70.606-7.99-128.767-36.938-180.426-87.963
		c30.16-55.579,71.598-91.061,111.633-95.297c55.783-5.673,95.905,43.34,126.961,83.991c26.062-38.726,57.056-81.878,108.165-85.5
		c51.435-3.297,99.283,37.507,125.681,65.707C2124.177,2375.579,2031.792,2418.978,1904.091,2404.713z M2210.621,2261.925
		c-84.573-86.997-176.527-97.899-249.616-1.642c-88.881-105.451-188.865-79.376-255.182,34.018
		c-61.093-69.043-103.653-159.264-151.658-239.785c232.643,96.125,555.877,82.509,772.989-17.43
		C2290.384,2110.626,2257.538,2193.703,2210.621,2261.925z"/>
	<path d="M2411.181,1033.812c36.124-3.164,66.401,24.717,66.401,60.14c0,33.013-27.187,59.829-60.98,59.829
		c-32.807,0-59.868-25.784-60.935-57.89c-91.829,151.445,9.842,352.724,180.248,352.724c118.233,0,213.77-102.221,213.77-228.446
		C2749.677,1032.6,2551.497,926.678,2411.181,1033.812z M2586.283,1343.679c-18.993,0-34.256-15.159-34.256-33.866
		c0-18.687,15.26-33.86,34.256-33.86c19.006,0,34.298,15.172,34.298,33.86C2620.587,1328.521,2605.289,1343.679,2586.283,1343.679z"
		/>
	<path d="M2494.441,891.164c-185.087,0-335.659,161.826-335.659,360.748c0,198.935,150.579,360.748,335.659,360.748
		s335.652-161.819,335.652-360.748C2830.1,1052.989,2679.528,891.164,2494.441,891.164z M2494.441,1578.514
		c-166.239,0-301.507-146.521-301.507-326.602s135.261-326.596,301.507-326.596c166.239,0,301.5,146.514,301.5,326.596
		C2795.944,1432,2660.683,1578.514,2494.441,1578.514z"/>
	<path d="M1681.317,1220.156c0-187.569-198.181-293.497-338.49-186.35c36.111-3.164,66.394,24.711,66.394,60.14
		c0,33.013-27.187,59.829-60.98,59.829c-32.808,0-59.862-25.784-60.935-57.89c-91.816,151.439,9.849,352.724,180.248,352.724
		C1585.783,1448.609,1681.317,1346.388,1681.317,1220.156z M1517.938,1275.96c18.999,0,34.298,15.172,34.298,33.86
		c0,18.707-15.298,33.866-34.298,33.866s-34.249-15.159-34.249-33.866C1483.679,1291.132,1498.939,1275.96,1517.938,1275.96z"/>
	<path d="M1761.755,1251.912c0-198.929-150.572-360.748-335.652-360.748c-185.087,0-335.659,161.826-335.659,360.748
		c0,198.935,150.566,360.748,335.659,360.748C1611.183,1612.664,1761.755,1450.839,1761.755,1251.912z M1124.593,1251.912
		c0-180.083,135.261-326.596,301.5-326.596s301.507,146.514,301.507,326.596s-135.268,326.602-301.507,326.602
		C1259.847,1578.514,1124.593,1432,1124.593,1251.912z"/>
</g>
</svg>
