<?xml version="1.0" encoding="utf-8"?>

<svg version="1.1" id="Layer_1" xmlns="http://www.w3.org/2000/svg" xmlns:xlink="http://www.w3.org/1999/xlink" x="0px" y="0px"
	 viewBox="0 0 5000 3714.758" enable-background="new 0 0 5000 3714.758" xml:space="preserve">
<g>
	<path d="M2426.1,2904.815c1.208,1.626,2.093,3.417,2.841,5.287C2428.221,2908.225,2427.308,2906.441,2426.1,2904.815z"/>
	<path d="M1348.746,3307.938c-0.885-0.288-1.719-0.727-2.575-1.094c0,0.021,0,0.042-0.014,0.072
		C1347.005,3307.29,1347.861,3307.657,1348.746,3307.938z"/>
	<path d="M1352.234,3422.925c-0.137,0.065-0.295,0.116-0.432,0.186c0.007,0.014,0.015,0.035,0.022,0.058
		C1351.96,3423.105,1352.083,3422.997,1352.234,3422.925z"/>
	<path d="M673.349,2345.743c0.302,0.906,0.612,1.805,1.007,2.683c-0.396-0.871-0.64-1.798-0.942-2.704
		C673.392,2345.729,673.363,2345.736,673.349,2345.743z"/>
	<path d="M828.219,2313.249h-0.072c0,0.2,0.058,0.386,0.058,0.56C828.205,2313.623,828.226,2313.435,828.219,2313.249z"/>
	<path d="M727.048,2326.965c-13.45,3.552-26.62,7.897-39.487,12.94c-4.488,9.386-3.539,16.363-0.129,22.923
		c44.645,29.072,139.478-3.552,140.773-48.083c-0.26,6.221-2.59,12.494-6.539,18.542c0.51-7.049-1.367-13.293-7.696-19.478
		c-14.213,0.748-28.296,2.128-42.207,4.165c8.186,0.511,12.077,2.344,15.054,3.538c3.453,1.747,5.847,4.028,6.502,6.905
		c5.38,23.657-80.132,43.141-85.491,19.478c-0.813-3.552,0.992-7.437,4.646-11.191
		C716.655,2332.524,721.654,2329.518,727.048,2326.965z"/>
	<path d="M595.324,2401.105c-0.993-1.194-2.079-2.288-3.258-3.301c-0.007,0.007-0.022,0.021-0.036,0.028
		C593.216,2398.846,594.353,2399.904,595.324,2401.105z"/>
	<path d="M478.797,2614.696c1.489-0.202,2.985-0.36,4.481-0.281c-1.496-0.051-2.978,0.021-4.474,0.223
		C478.804,2614.652,478.804,2614.666,478.797,2614.696z"/>
	<path d="M834.901,1410.802c-4.351,53.103,69.444,121.022,109.22,100.991c-5.596,2.734-12.228,3.668-19.42,3.071
		c7.416-3.294,12.832-9.351,14.371-21.204c-8.768-12.357-17.981-24.261-27.634-35.733c2.798,4.891,4.682,9.416,5.732,12.94v0.007
		c0.316,1.071,0.769,2.1,1.338,7.761c0.093,3.87-0.762,7.063-2.985,8.998c-18.254,15.974-76.061-49.988-57.778-65.955
		c2.74-2.402,7.013-2.662,12.055-1.245c0,0,0.007,0,0.014,0c4.783,1.352,9.523,4.049,13.586,6.84
		c-9.595-9.544-19.65-18.572-30.129-27.13C843.841,1401.114,838.771,1405.113,834.901,1410.802z"/>
	<path d="M841.374,1392.489c0.273-0.367,0.633-0.676,0.935-1.022c-0.036-0.019-0.072-0.049-0.093-0.063
		C841.921,1391.749,841.647,1392.13,841.374,1392.489z"/>
	<path d="M3847.87,1948.779c1.855,0.813,3.79,1.294,5.791,1.575C3851.667,1950.045,3849.711,1949.59,3847.87,1948.779z"/>
	<path d="M3089.075,3065.173c0.093,0.56,0.251,1.115,0.374,1.661c-0.13-0.539-0.123-1.122-0.223-1.668
		C3089.175,3065.173,3089.132,3065.173,3089.075,3065.173z"/>
	<path d="M4333.076,1617.331c-5.25,3.524-9.063,7.768-10.645,15.464c-33.734-25.605-67.035-57.9-98.97-98.107l-9.279,29.13
		c-30.785,96.884,17.189,216.137,122.202,303.814c321.724,268.714,838.367-78.399,604.895-536.854
		c-164.278-322.731-583.75-446.299-895.116-265.406c-19.636,10.142-69.624,42.724-69.624,43.371
		c-382.213,261.234-612.591,895.475-718.322,968.48c-55.095,39.775-161.186,42.292-199.809-14.961
		c-36.755-50.061-0.432-117.958,39.918-164.926c457.807-416.594,424.793-865.986,424.362-869.87
		c0-307.482-128.819-623.452-394.872-823.262c-362.003-271.951-893.965-272.599-1256.83,0
		c-260.947,195.998-395.088,510.817-394.8,821.823c-0.431,4.459-35.316,453.132,423.859,870.877
		c145.65,169.097-29.562,257.063-154.928,183.411c-128.459-76.098-443.134-1019.404-1015.088-1091.185
		c-540.81-78.399-913.097,504.919-636.039,827.577c145.002,168.81,400.051,191.61,568.501,50.923
		c105.012-87.677,152.986-206.93,122.202-303.814l-9.279-29.202c-32.582,40.997-66.746,74.011-101.487,100.048
		c-2.661-7.12-6.042-9.494-9.494-11.796c-45.098-8.056-100.336,33.949-95.446,70.2c-25.246,9.422-50.132,15.536-74.155,18.773
		c-0.072-0.288-0.144-0.575-0.144-0.935c0,0.36,0,0.648,0.072,0.935c-3.956,0.504-7.912,1.079-11.796,1.439
		c5.034-6.761,5.538-13.306,4.171-20.211c-27.835-39.919-102.854-47.687-120.044-13.522c0-0.072-0.072-0.072-0.072-0.072
		c-21.075-18.988-36.394-44.378-43.084-73.867c0.792-0.072,1.655-0.216,2.518-0.36c-0.863,0.144-1.726,0.144-2.518,0.216
		c-0.863-3.74-1.654-7.552-2.158-11.436c6.402,5.898,11.94,6.761,17.55,6.689c44.306-24.455,58.692-113.283,22.585-136.731
		c0.072-0.072,0.072-0.144,0.072-0.144c15.967-23.663,34.093-44.954,54.232-63.654c-0.072,8.991,3.237,13.594,7.049,17.406
		c51.283,14.529,132.128-44.738,120.188-87.677c1.583,6.042,1.223,12.731-0.719,19.635c-1.655-6.977-5.61-12.875-14.313-16.902
		c4.747-1.583,9.566-3.093,14.457-4.459c0.072,0.287,0.216,0.575,0.288,0.863c-0.072-0.288-0.144-0.576-0.216-0.863
		c27.116-7.624,55.67-11.436,85.52-11.005c2.949,0.072,5.754-0.072,8.703,0.072c-3.956,5.322-4.316,9.063-4.459,13.45
		c24.023,45.529,116.808,63.51,143.636,30.353c-3.165,3.596-7.193,6.689-11.94,9.206c4.099-6.186,5.538-13.45,2.085-22.8
		c4.891,2.086,9.567,4.243,14.169,6.473c-0.143,0.432-0.359,0.863-0.502,1.295c0.215-0.432,0.359-0.792,0.574-1.223
		c70.2,33.59,107.817,77.536,103.861,74.443c39.631,39.703,61.928,76.601,64.661,79.981c-0.719,0.576-1.367,1.079-2.085,1.582
		c0.718-0.504,1.366-0.935,2.085-1.51c14.601,21.865,28.051,44.882,40.566,68.617c-8.559-0.647-12.659,2.158-16.039,4.675
		c-21.434,47.471,22.728,133.278,65.955,131.912c-5.25,0-10.789-1.367-16.255-3.812c9.855-0.792,16.543-6.474,20.86-15.248
		c14.888,35.675,28.985,71.422,42.867,106.306c-10.07-5.394-19.996-6.833-28.698,0.648
		c-16.975,53.872,35.747,151.835,79.334,154.496c-4.819-0.432-9.927-2.086-15.105-4.819c11.509-0.647,17.837-9.207,20.859-20.283
		c-0.431-0.935-0.791-1.798-1.223-2.733c15.752,33.589,32.798,67.538,50.852,100.552c-173.485-64.374-428.462-89.044-724.22,101.344
		c-407.747,234.262-324.601,810.89-4.459,897.417c129.178,34.884,277.13,47.903,391.42-22.872
		c123.713-76.673,150.613-204.916,174.779-325.464c-28.41,32.798-94.294,118.605-205.419,160.323
		c-34.021-7.408,34.956-64.805,54.303-44.954c2.446,2.517,2.95,6.114,1.87,10.213c0,2.589-4.818,9.566-6.473,11.58
		c8.919-4.963,17.405-10.069,25.39-15.248c1.006-9.71-2.302-18.413-11.221-24.311c-46.752-8.415-103.429,36.682-94.942,73.005
		c-39.487,10.932-75.378,12.083-104.796,9.134c6.977-7.049,8.344-14.888,6.761-23.16c-27.547-39.343-101.271-47.615-119.54-14.457
		c0.072,0.072,0.072,0.072,0.144,0.144c1.654-2.805,3.668-5.466,6.186-7.768c-1.151,3.74-1.439,6.545-0.935,10.573
		c3.093,1.726,6.186,3.38,9.279,4.963c-53.01-26.253-68.689-51.139-77.464-60.777c1.079-0.504,2.086-1.151,3.093-1.798
		c-1.007,0.647-2.014,1.223-3.093,1.726c-2.733-3.668-5.179-7.48-7.552-11.292c8.703,3.74,14.745,2.517,20.427-0.144
		c28.914-40.782,5.251-127.74-34.452-140.759c3.38,1.295,6.833,3.165,10.141,5.466c-11.004-1.295-19.42,4.531-25.39,13.81
		c-0.72,17.118,0.216,33.661,2.805,49.556c-6.617-39.775-1.367-71.35-1.007-71.35c5.538-45.961,22.225-84.297,23.304-86.598
		c0.576,0.144,1.223,0.288,1.798,0.431c-0.576-0.144-1.151-0.431-1.726-0.575c1.295-3.165,2.589-6.186,3.956-9.206
		c3.812,7.049,7.193,8.775,11.508,10.645c53.009-5.97,105.443-91.418,78.183-126.59c3.74,4.963,5.97,11.292,6.761,18.485
		c-5.682-8.056-13.954-10.861-23.663-10.213c47.687-48.19,93.144-64.877,95.23-64.877c-0.144,0.216-0.432,0.288-0.791,0.503
		c88.972-39.487,189.237-41.285,287.703-19.923c-7.049-1.438-14.025-2.733-21.074-3.956c-10.071,6.258-13.379,13.666-13.379,22.153
		c25.174,44.738,118.389,60.202,144.355,26.325c-3.021,3.668-6.977,6.833-11.724,9.494c5.106-8.128,4.603-16.686,0.575-25.03
		c5.394,2.014,10.789,4.1,16.111,6.186c-0.503,1.583-1.078,3.165-1.87,4.603c0.792-1.438,1.438-3.021,1.942-4.603
		c36.107,14.241,71.207,30.928,104.58,49.341c-11.94,3.021-16.831,8.991-19.276,16.327c9.637,50.492,92.855,94.727,128.458,70.919
		c-4.027,2.518-8.847,4.316-14.097,5.323c8.344-6.905,10.07-16.615,7.841-27.044c-12.013-8.487-24.024-16.759-35.963-24.742
		c35.387,23.016,83.218,58.691,134.573,97.891c-13.163-0.719-25.534,2.446-29.849,15.104
		c12.084,52.29,98.754,107.097,140.686,95.014c-2.948,0.791-6.042,1.223-9.422,1.367c9.566-6.401,10.717-16.974,7.696-28.123
		c-5.394-4.1-10.717-8.128-16.039-12.227c25.102,19.06,49.773,37.617,73.149,54.735c-190.532,49.629-345.1,176.865-459.678,378.761
		c-205.707,347.617,69.049,661.142,432.489,661.142c119.325,0,193.84-30.209,271.52-57.829
		c-40.71-6.905-119.181-17.19-215.49-54.664c-0.287-0.215-0.431-0.431-0.718-0.647c-1.942-1.798-3.596-3.667-4.819-5.538h-0.072
		c-11.796-17.622,12.802-22.658,34.596-16.111c24.24,7.264,44.379,28.05,26.11,36.034c-3.021,1.295-7.697,2.014-10.43,2.086
		c9.566,3.093,18.701,5.898,27.475,8.488c8.416-6.69,10.358-14.17,9.711-22.442c-21.506-39.199-83.722-54.448-110.263-34.093
		c-2.373,5.754-3.02,12.156,0,20.644c-5.034-2.158-10.141-4.46-11.077-4.891c0.144-0.503,0.216-1.007,0.36-1.511
		c-0.144,0.504-0.36,0.936-0.503,1.439c-35.892-16.183-58.98-29.849-84.154-46.465c0.36-0.79,0.648-1.51,0.864-2.373
		c-0.216,0.863-0.648,1.511-0.936,2.301c-1.438-1.006-2.732-2.013-4.171-3.02c3.237-1.798,4.027-2.733,6.689-6.114
		c7.624-52.721-61.929-125.079-102.854-107.458c5.754-2.373,12.443-2.948,19.636-1.87c-6.745,2.441-11.771,6.96-14.724,15.982
		c-0.095,0.047-0.211,0.048-0.3,0.104c-0.007,0.005-0.011,0.012-0.018,0.018c-4.253-8.549-5.888-13.73-5.888-13.73
		c-16.655-41.825-15.161-87.64-1.303-131.89c0.142,0.052,0.3,0.055,0.451,0.089c-0.004,0.011-0.009,0.022-0.012,0.033
		c3.884,10.429,9.927,14.673,17.263,16.615c51.57-13.45,91.273-105.587,59.195-136.443c4.387,4.388,7.48,10.285,9.278,17.262
		c-6.689-7.12-15.32-8.703-24.743-6.689c3.812-4.603,7.841-8.991,11.941-13.378c20.642-22.081,43.946-41.501,68.617-56.678
		c0.144,0.288,0.359,0.575,0.503,0.863c-0.144-0.288-0.216-0.648-0.359-0.935c4.099-2.589,8.272-4.963,12.371-7.265
		c-3.093,9.063-1.582,15.608,2.157,21.578c46.681,25.606,138.817-14.098,136.659-58.62c0.216,6.186-1.654,12.659-5.106,18.989
		c0-9.998-5.25-17.046-13.665-22.081c-0.062,0.008-0.121,0.02-0.182,0.028c-0.013-0.125-0.052-0.246-0.079-0.37
		c10.969-1.532,17.645-1.815,18.242-1.815c0.216,0.719,0.359,1.439,0.503,2.158c-0.144-0.719-0.287-1.438-0.431-2.158
		c48.046-4.459,111.844-3.38,145.937-2.229c-6.042-0.216-12.084-0.288-17.981-0.432c-8.847,7.337-14.169,16.687-11.22,28.195
		c31.527,32.905,109.077,30.299,137.976,1.911c0.123-0.304,0.248-0.608,0.374-0.912c-0.309,0.311-0.579,0.637-0.9,0.943
		c3.093-9.854-0.144-18.629-7.193-26.181c49.197,1.511,98.754,2.014,148.167-1.079c-7.625,10.573-7.337,19.132-3.956,26.756
		c36.406,26.878,111.269,11.542,135.542-20.78c0.007-0.038,0.009-0.077,0.016-0.115c0.039-0.2,0.093-0.396,0.165-0.587
		c0.007-0.019,0.018-0.037,0.025-0.057c-0.009,0.01-0.015,0.022-0.023,0.032c1.222-8.775-1.942-15.896-8.56-22.009
		c-1.439,0.288-2.877,0.575-4.315,0.863c48.694-10.573,93.936-26.181,136.083-47.327c-0.934,0.503-1.798,1.007-2.732,1.438
		c-2.662,10.789-1.726,20.427,7.337,27.116c57.325,4.531,143.06-71.71,132.199-114.506c1.223,5.395,0.864,11.652-0.791,18.27
		c-2.445-8.344-8.488-12.947-17.118-14.889c32.51-29.921,62.863-64.949,91.13-105.587c-0.072-0.144-0.216-0.36-0.288-0.576
		c33.23,55.239,63.942,89.044,66.603,91.849c-0.359,0.647-0.647,1.367-0.935,2.014c0.216-0.647,0.72-1.223,1.007-1.942
		c3.309,3.74,6.618,7.264,9.926,10.789c-6.977,3.236-9.639,7.552-11.221,12.802c-1.942-7.696-2.086-14.745-0.072-20.715
		c-15.032,42.364,73.293,121.483,131.48,116.951c3.668-2.733,6.545-5.107,7.984-12.156c6.617,3.237,10.573,4.891,11.292,5.107
		c0.071,0,0.071,0,0.071,0c52.434,24.526,101.92,34.38,101.92,34.38c4.314,0.935,8.631,1.87,12.946,2.733
		c-1.798-0.359-3.668-0.647-5.467-1.007c-1.367,3.813-1.511,6.905-0.935,10.861c-3.02-4.028-5.25-8.271-6.544-12.587
		c-0.072,0-0.072,0-0.144,0c11.939,42.148,102.206,63.798,142.412,34.093c2.014-4.459,3.524-9.206,1.007-17.19
		c6.473,0.216,10.573,0.216,11.724,0.216c-0.216,0.575-0.287,1.223-0.575,1.798c0.288-0.575,0.431-1.223,0.647-1.798
		c0.287,0,0.287-0.072,0-0.072c53.872,1.151,114.002-1.654,113.139-1.654c9.494-0.36,18.988-0.791,28.411-1.223
		c-4.963,0.288-9.927,0.503-14.961,0.719c-4.1,7.049-4.387,13.163-2.374,19.636c-4.531-4.315-7.911-9.063-9.853-14.241
		c14.313,41.142,111.125,50.132,147.304,12.299c1.942-7.48,1.006-14.745-5.97-23.016c41.645-0.935,82.571-0.647,121.987,2.949
		c2.805,0.647,48.765,1.294,110.982,27.692c0.287,0.144,0.574,0.359,0.934,0.503c-0.36-0.144-0.647-0.288-0.934-0.431
		c0.79,0.719,2.157,1.942,2.732,2.733c15.967,19.205-14.673,25.031-43.515,16.112c-26.036-8.056-49.484-28.627-29.489-36.898
		c3.02-1.223,7.264-1.942,8.703-2.086c-12.012-2.733-24.239-4.963-36.683-6.401c-5.609,5.323-7.624,10.932-7.624,17.622
		c-2.877-5.323-4.604-10.645-5.035-15.895c2.086,43.155,90.915,80.557,136.659,55.526c2.374-3.956,4.604-7.984,3.381-16.183
		c3.021,1.726,6.042,3.453,9.063,5.251c-0.575,0.791-1.079,1.582-1.726,2.301c0.647-0.719,1.223-1.438,1.798-2.23
		c25.533,15.32,48.621,33.733,68.76,54.52c-0.288,0.288-0.575,0.647-0.862,0.863c0.287-0.288,0.646-0.431,1.006-0.719
		c3.596,3.668,6.977,7.48,10.357,11.364c-9.637-1.079-16.326,1.942-21.362,7.336c1.582-6.042,4.1-11.292,7.625-15.464
		c-28.842,32.582,10.285,121.482,60.849,134.645c7.337-1.942,13.235-6.114,17.047-16.183c1.798,5.035,3.38,10.07,4.818,15.104
		c-0.432,0.144-0.791,0.36-1.222,0.575c0.431-0.144,0.79-0.288,1.222-0.504c11.867,42.292,10.285,81.492-3.092,117.527
		c-0.504-0.287-0.936-0.575-1.439-0.79c0.431,0.287,0.935,0.574,1.367,0.862c-2.158,5.898-4.604,11.653-7.408,17.406
		c-2.014-12.3-7.913-18.341-15.752-21.291c7.121-1.006,13.81-0.503,19.564,1.87c-40.926-17.55-110.479,54.808-102.854,107.529
		c2.804,3.596,5.25,6.474,12.227,8.416c-4.459,3.308-7.265,5.178-7.48,5.322c-0.144-0.216-0.287-0.432-0.431-0.648
		c0.144,0.216,0.216,0.432,0.359,0.648v0.072c-30.497,20.93-65.164,38.983-101.127,54.232c5.179-8.848,7.48-18.629,3.524-28.052
		c-26.612-20.427-88.9-4.818-110.19,34.093c-1.151,12.731,5.395,21.219,16.039,26.326c-6.473,1.941-12.947,3.884-19.276,5.61
		c-51.859,14.313-74.156,16.974-129.107,26.397c88.037,31.36,155.503,57.757,271.376,57.757
		c360.06,0,639.42-311.583,432.705-660.854c-108.609-191.394-261.594-331.074-472.121-381.854c4.099,1.007,8.272,1.87,12.3,2.949
		c6.257-4.604,23.016-17.046,39.99-29.706c0.431,0.504,0.863,1.007,1.438,1.511c-0.431-0.504-0.863-1.007-1.367-1.511
		c4.892-3.668,9.711-7.336,14.385-10.789c-0.646,8.919,1.942,15.68,9.063,20.499c-6.905-0.432-13.018-2.014-17.837-4.891
		c37.474,23.735,136.156-35.675,149.102-91.49c-2.588-7.696-8.271-13.45-20.93-14.961c35.172-26.541,59.699-44.81,76.888-57.396
		c0.648,0.791,1.367,1.582,2.086,2.302c-0.719-0.719-1.366-1.511-2.014-2.374c4.46-3.237,8.416-6.114,11.868-8.703
		c-0.143,9.135,3.093,15.177,8.632,19.78c39.559,8.272,105.947-31.431,114.505-76.097c-1.87-5.394-4.171-10.07-13.162-14.241
		c3.74-2.086,7.48-4.171,11.292-6.258c0.144,0.36,0.36,0.719,0.504,1.079c-0.144-0.36-0.288-0.719-0.432-1.151
		c28.626-15.608,58.117-29.561,88.541-41.213c0.144,0.288,0.288,0.504,0.431,0.719c-0.143-0.216-0.215-0.503-0.359-0.719
		c1.222-0.503,2.373-1.007,3.524-1.438c3.093-1.151,6.042-2.158,9.063-3.237c-2.23,7.912-1.008,13.954,2.588,19.636
		c-4.098-2.229-7.624-4.963-10.501-8.056c27.548,31.935,118.318,16.327,143.204-27.835c-0.072-5.61-0.935-11.005-7.336-17.334
		c-9.567,1.583-19.062,3.309-28.555,5.323c0.503,0.144,1.007,0.288,1.511,0.431h0.072c23.735,7.84,0.718,28.986-28.483,36.682
		c-26.325,6.905-57.11,1.87-44.522-15.752c0.72-0.791,1.223-1.726,3.093-3.596c26.325-8.2,49.845-13.882,68.33-17.766
		c23.592-5.035,38.768-6.977,40.71-7.193c0,0.072,0,0.216,0.072,0.288v-0.288c51.426-7.408,90.698-6.114,93.934-5.969
		c7.265,43.299,97.747,71.854,140.399,44.09c2.229-4.315,4.099-8.775,2.014-17.046c5.609,2.302,9.062,3.884,10.213,4.172
		c24.094,10.357,43.946,22.585,57.9,32.367s22.009,17.118,22.729,17.694c-0.288,0.36-0.504,0.719-0.792,1.079
		c0.288-0.36,0.648-0.647,0.936-0.935c3.74,3.165,7.409,6.474,10.861,9.854c-9.134,0.575-14.961,4.315-19.132,10.285
		c0.791-7.193,3.021-13.522,6.762-18.485c-27.333,35.243,25.174,120.691,78.182,126.589c4.1-1.798,7.265-3.237,11.005-9.422
		c1.294,2.733,2.446,5.538,3.596,8.199c-0.288,0.144-0.576,0.288-0.863,0.36c0.287-0.072,0.647-0.144,0.935-0.216
		c19.419,45.673,24.526,82.283,25.03,87.318c-0.719-0.072-1.438-0.144-2.158-0.216c0.72,0.072,1.439,0.216,2.158,0.288
		c0.072,0.359,0.144,0.575,0.072,0.575c1.007,7.624,1.582,14.817,2.014,21.937c-5.898-10.07-14.745-16.902-26.54-15.536
		c5.106-3.668,10.501-6.114,15.896-6.977c-43.083,6.185-70.416,99.545-40.207,142.269c7.696,3.668,16.615,3.956,27.548-3.956
		c0.934-1.726,1.87-3.524,2.804-5.323c-7.048,14.745-13.233,22.441-13.305,22.441c-0.36-0.144-0.72-0.288-1.08-0.36
		c0.36,0.144,0.648,0.288,1.008,0.431c-21.866,31.36-58.908,56.75-99.258,73.652c8.271-3.596,16.615-7.624,25.03-12.155
		c2.877-7.48,2.518-13.019,1.079-18.053c3.883,3.668,6.689,7.984,8.344,12.875c0.072,0,0.072-0.072,0.144-0.072
		c-12.084-38.337-92.425-32.582-121.699,9.35c-2.517,12.875,3.236,22.369,13.738,28.483c-6.977,1.007-13.882,1.798-20.572,2.158
		c-51.498,2.805-93.503-10.789-93.503-10.861c-3.092-0.935-6.113-1.942-9.207-2.949c6.689-3.237,9.566-6.402,12.084-10.933
		c0.144,4.891-0.792,9.566-2.806,13.81c0.072,0.072,0.144,0.072,0.216,0.072c16.903-35.675-42.724-87.821-93-78.758
		c-10.933,7.192-13.307,18.772-9.711,30.856c-35.963-23.088-67.609-50.276-90.123-76.242l-40.349-46.464l12.083,60.346
		c58.116,290.868,272.239,364.016,554.044,287.846c319.998-86.526,403-663.371-3.74-896.985
		c-253.538-163.271-504.918-185.569-730.909-99.473c2.013-0.791,3.955-1.583,5.969-2.302c16.327-29.849,32.439-61.209,49.988-98.538
		c4.532,11.005,11.509,14.889,19.205,15.392c-5.179,2.661-10.287,4.315-15.033,4.747c43.731-2.661,96.093-100.839,79.262-154.424
		c-5.826-4.963-12.947-7.265-24.239-2.733c10.142-24.814,24.239-59.411,35.244-86.455h0.072c1.942-4.819,3.812-9.422,5.538-13.666
		c5.178,7.624,11.363,10.573,18.413,11.076c-5.467,2.518-10.861,3.812-16.111,3.812c43.227,1.151,87.246-84.513,65.884-131.912
		c-3.74-2.733-6.042-4.1-11.797-4.603c1.224-2.302,2.518-4.675,3.812-6.977c11.221-20.427,23.16-40.207,35.963-59.195
		c0.288,0.144,0.504,0.287,0.792,0.432c-0.288-0.144-0.504-0.36-0.72-0.504c2.59-3.812,5.25-7.624,7.913-11.364
		c2.732,8.847,7.12,12.731,13.09,15.32c-7.193,0.576-13.882-0.359-19.421-3.021c39.775,19.995,113.571-47.903,109.184-100.984
		c-2.517-3.74-4.819-6.761-11.652-9.206c2.446-1.87,4.818-3.884,7.265-5.682c0.216,0.288,0.36,0.504,0.504,0.72
		c-0.072-0.288-0.216-0.576-0.36-0.863c18.844-14.026,39.199-26.397,61.137-36.898c25.03,36.178,120.908,17.981,145.29-28.195
		c-0.216-5.394-0.575-5.826-1.438-7.84c1.51-0.072,3.021-0.144,4.531-0.216c-0.144,0.576-0.216,1.079-0.36,1.583
		c0.144-0.504,0.288-1.007,0.431-1.583c28.77-0.575,57.612,2.59,85.376,10.07c-7.552,43.371,71.278,98.898,120.908,84.872
		c3.164-3.237,5.753-6.114,6.761-13.306c2.23,2.086,4.459,4.172,6.76,6.401c-0.216,0.144-0.36,0.288-0.503,0.432
		c0.215-0.072,0.431-0.216,0.575-0.36c25.246,24.527,49.773,55.167,66.963,87.534c-4.819-8.487-10.142-17.046-15.896-25.893
		c-5.754-0.432-9.783,0.719-14.098,3.165c2.589-4.171,5.682-7.696,9.207-10.357c-0.072-0.072-0.072-0.072-0.072-0.072
		c-34.237,25.534-18.988,111.701,24.239,135.58c7.481,0.072,13.881-2.086,19.996-9.135c0.216-2.445,0.36-4.819,0.431-7.265
		c-0.071,2.446-0.215,4.891-0.359,7.265c-5.036,58.763-44.522,91.993-45.961,93c-0.071,0.072-0.071,0.072-0.071,0.072
		c-3.957,3.668-8.2,6.905-12.587,9.998c5.538-9.35,5.969-17.046,3.955-23.735c0.169,0.154,0.303,0.327,0.467,0.482
		c-0.086-0.245-0.204-0.486-0.237-0.734c-24.351-23.102-88.021-14.085-113.441,22.404c-2.229,11.364,2.014,19.996,10.358,26.181
		c-49.269-3.956-88.469-19.492-93.145-21.578C4438.446,1655.524,4380.475,1608.844,4333.076,1617.331z M4385.222,1643.44
		c14.888,10.357,29.129,30.568,13.521,36.107c-19.204-9.135-38.479-20.211-57.756-33.374c-0.071-0.288-0.143-0.575-0.215-0.863
		c-0.359-1.438-0.575-2.805-0.575-4.028C4340.196,1627.473,4363.86,1628.552,4385.222,1643.44z M654.866,1640.635
		c1.583,1.654,2.302,3.74,2.374,6.042c-20.859,14.313-41.861,26.253-62.791,35.819
		C578.697,1665.521,638.539,1623.948,654.866,1640.635z M432.04,1674.656c24.814,4.675,47.111,23.16,29.777,33.014
		c-5.179,5.178-36.682,6.545-56.965-8.344c-2.23-1.582-4.028-3.237-5.466-4.963v-0.072
		C385.72,1678.108,409.671,1670.484,432.04,1674.656z M373.924,1670.916c-1.295,4.459-1.654,8.559-0.144,14.242
		c-2.877-2.23-5.826-4.819-6.545-5.538C368.889,1676.454,371.119,1673.505,373.924,1670.916z M363.279,1541.378
		c-7.049,27.188-27.907,49.341-36.179,27.332c-1.582-4.244-2.23-9.207-2.23-14.529c0-11.652,3.237-24.814,7.553-34.596
		c3.596-8.128,7.768-13.45,8.703-14.457c1.583-1.87,3.453-3.74,5.538-5.25C363.279,1488.368,370.256,1514.189,363.279,1541.378z
		 M372.773,1475.565c-4.603-2.589-9.279-4.028-16.615-2.733c2.661-4.244,5.035-7.768,5.682-8.703
		C366.084,1466.934,369.753,1470.818,372.773,1475.565z M485.481,1391.197c-25.75,14.888-57.253,16.183-46.033-5.97
		c1.87-3.596,5.251-7.84,7.481-10.213c11.939-8.703,24.454-16.543,37.401-23.448c6.329-2.086,16.183-4.244,21.649-2.877
		C526.551,1352.141,510.871,1376.452,485.481,1391.197z M694.784,1357.535c-28.554-8.343-51.211-30.28-27.404-37.401
		c0.072-0.072,0.144-0.072,0.216-0.144c-0.288-0.072-0.648-0.072-0.935-0.144c0.791,0.072,1.151,0.144,1.151,0.144
		c22.298,3.021,43.083,7.912,62.36,13.954c3.452,2.446,7.193,5.538,9.494,9.063C751.391,1360.34,722.98,1365.735,694.784,1357.535z
		 M1029.815,1673.721c-6.545,19.852-28.267,0.719-39.056-26.541c-10.502-26.469-8.2-58.26,11.868-45.098
		c9.997,20.212,19.492,40.926,28.626,61.712C1031.181,1668.83,1030.39,1671.563,1029.815,1673.721z M1125.476,1909.565
		c-0.863,4.244-2.517,7.337-5.25,8.488c-22.225,9.71-63.798-85.52-41.501-95.23c3.309-1.438,7.696,0.072,12.372,3.668
		c3.38,2.59,7.768,7.121,11.867,12.947c13.163,31.504,21.794,50.564,21.866,50.564
		C1125.764,1895.18,1126.771,1904.459,1125.476,1909.565z M793.61,2841.723c2.949,5.25,4.675,5.97,5.538,6.617
		c-1.582,0.504-3.092,1.007-4.674,1.511C793.898,2847.189,793.538,2844.528,793.61,2841.723z M641.128,2817.484
		c24.886,4.675,47.04,23.16,29.777,33.014c-3.525,2.014-8.775,3.165-12.803,3.453c5.466,1.222,10.789,2.229,16.183,3.093
		c-43.227-6.546-68.905-20.859-65.74-19.636c0.072,0,0.144,0.072,0.216,0.072c-0.144-0.072-0.288-0.287-0.288-0.359
		C594.808,2820.936,618.687,2813.312,641.128,2817.484z M489.365,2656.082c10.142-18.269,27.836,4.604,33.302,33.445
		c5.466,29.274-3.884,59.411-21.002,41.429c-9.638-10.141-16.759-32.51-16.759-52.074
		C484.905,2670.323,486.272,2662.268,489.365,2656.082z M498.427,2482.526c-1.87,3.452-3.668,6.977-5.394,10.429
		c1.726-3.453,3.453-6.977,5.322-10.429c4.388-8.2,8.919-16.183,13.666-23.807C507.346,2466.342,502.815,2474.326,498.427,2482.526z
		 M565.318,2480.44c-18.197,23.591-46.895,36.61-44.81,11.867c0.072-1.654,0.432-3.38,0.863-5.106
		c8.775-15.896,18.197-30.137,27.835-42.868c4.963-4.244,12.587-9.71,19.06-11.005C588.622,2428.797,583.3,2457.208,565.318,2480.44
		z M1036.432,2362.409c-6.114,23.52-90.985,1.223-84.801-22.225c0.936-3.525,4.316-6.186,9.351-7.768
		c4.244-1.438,9.207-1.942,14.169-1.942c2.518,0,5.035,0.144,7.409,0.36c11.581,2.877,23.088,6.114,34.525,9.566
		c8.919,4.387,12.947,8.344,16.83,12.875C1036.144,2356.439,1037.224,2359.533,1036.432,2362.409z M1260.049,2469.579
		c1.15,3.74,1.15,7.049-0.504,9.494c-13.306,20.283-86.599-27.835-73.292-48.047c2.014-3.093,6.042-4.459,11.292-4.459
		c5.754,0,12.731,2.014,18.198,4.172c10.358,6.329,20.499,12.803,30.424,19.42c0.144,0.072,0.287,0.144,0.359,0.216
		C1251.275,2454.834,1258.467,2463.393,1260.049,2469.579z M1411.74,2617.458c-31.215-22.657-45.098-51.787-18.701-48.478
		c6.042,0.719,12.731,3.165,19.204,6.258c6.474,3.093,12.731,6.833,17.766,10.285c4.388,3.308,8.704,6.689,13.091,10.069
		c7.697,6.689,18.485,17.91,21.722,27.548C1472.302,2644.934,1440.08,2637.957,1411.74,2617.458z M1421.45,3471.936
		c13.378,17.261,25.102,48.694,5.61,47.47c-21.146-17.333-36.683-34.165-47.903-48.765c-0.719-1.942-1.295-3.812-1.654-5.538
		c-0.863-3.524-0.863-5.538-0.863-7.84C1377.36,3436.405,1403.541,3448.704,1421.45,3471.936z M1408.431,3253.713
		c-14.672,25.894-41.141,42.94-42.723,18.125c0-22.225,15.823-49.7,31.935-61.352c2.374-1.727,4.676-3.021,6.833-3.812
		c0,0,0-0.072,0.072-0.072C1424.04,3199.194,1422.816,3228.107,1408.431,3253.713z M1573.573,3114.393
		c-28.411,8.847-59.411,3.021-43.515-16.039c0.863-0.575,5.897-8.128,23.089-15.392c13.521-5.754,38.408-11.22,49.916-5.395
		C1622.338,3085.551,1601.625,3105.69,1573.573,3114.393z M1826.752,3096.699c-29.705-0.216-57.541-15.105-36.61-28.483
		c6.329-4.028,15.32-6.258,22.728-7.265c0.144,0,0.216,0,0.216,0c15.536,0.575,31.216,1.151,46.968,1.726
		c-4.315-0.144-8.703-0.288-13.019-0.431c6.402,1.438,13.954,3.956,18.989,8.199
		C1881.991,3083.896,1856.169,3096.843,1826.752,3096.699z M2135.961,3054.048c3.308,2.014,5.609,4.387,6.041,7.336
		c3.956,23.879-82.571,38.265-86.455,14.313c-0.646-3.596,1.439-7.408,5.251-10.932c0,0,0,0,0.072,0
		c1.654-1.51,3.667-2.949,5.969-4.388c26.109-2.445,51.355-5.97,75.738-10.717c-3.812,0.719-7.552,1.583-11.365,2.23
		C2132.221,3052.25,2134.234,3053.041,2135.961,3054.048z M2366.554,2987.3c-31,23.016-62.935,27.404-51.859,3.309
		c0.288-0.575,1.87-3.596,1.942-3.74c-3.02,1.726-6.042,3.38-9.063,4.963c27.836-15.104,54.376-32.87,79.55-53.369
		c1.007-0.072,0.647,0,0.791-0.072C2411.005,2937.815,2394.606,2966.442,2366.554,2987.3z M2601.32,2935.154
		c31.072,29.058,60.705,49.269,82.499,62.072C2670.944,3019.307,2581.901,2952.272,2601.32,2935.154z M2855.505,3056.493
		c-2.014-0.359-4.099-0.791-6.186-1.151c35.028,6.114,68.33,8.991,92.065,10.357
		C2952.03,3093.966,2853.563,3082.961,2855.505,3056.493z M3170.756,3091.161c-27.26,0.144-55.814-12.371-39.271-26.325
		c0.719-0.576,1.366-1.079,2.086-1.655c23.16-1.007,46.176-2.086,69.12-2.949c1.726,0.719,3.308,1.51,4.676,2.374
		c5.034,3.236,7.264,6.617,7.264,9.925C3214.631,3082.242,3194.995,3090.945,3170.756,3091.161z M3626.622,3277.305
		c-21.146,11.939-64.231-64.446-43.084-76.385c2.589-1.438,5.825-1.223,9.494,0.144c8.344,3.164,18.053,12.875,25.678,25.102
		c7.552,12.156,13.091,26.9,13.091,40.134C3631.44,3271.551,3629.786,3275.435,3626.622,3277.305z M3576.058,3466.326
		c16.615-21.506,44.09-36.251,44.81-14.673c0,11.221-6.114,23.16-12.515,32.439c-7.121,8.128-14.889,16.039-23.376,23.736
		c-0.144,0.144-0.288,0.287-0.504,0.431c-2.733,1.798-5.394,3.381-8.631,4.459c0,0,0,0,0,0.072
		C3553.472,3520.558,3556.206,3492.003,3576.058,3466.326z M3391.28,3574.43c23.735-7.121,45.601-0.36,34.596,16.039
		c-8.703,12.875-32.223,22.225-48.909,22.225c-4.603,0-8.703-0.719-11.796-2.301
		C3347.478,3602.769,3365.387,3582.198,3391.28,3574.43z M3585.767,2611.92c-27.043,19.564-60.777,27.907-53.08,5.682
		c0.36-0.863,0.934-2.805,3.38-6.905l0.072-0.072c21.938-16.759,41.357-31.575,58.835-44.882c3.165-1.007,6.114-1.87,9.495-2.302
		c1.366-0.144,2.661-0.287,3.884-0.287C3629.282,2563.155,3615.833,2590.127,3585.767,2611.92z M3784.714,2464.832
		c-22.801,14.889-53.585,19.923-47.256-0.791c0.863-2.517,1.582-3.884,2.158-5.035c-0.072,0-0.144,0.072-0.288,0.144
		c0.144-0.144,0.216-0.216,0.36-0.288c0,0.072-0.072,0.072-0.072,0.144c0.144-0.144,0.216-0.144,0.216-0.144
		c19.204-13.09,38.839-25.75,58.835-37.761c0.432-0.072,1.007-0.072,1.294-0.072
		C3824.992,2420.957,3809.96,2448.289,3784.714,2464.832z M4175.917,2327.741c-3.092-4.747-5.106-9.638-6.042-14.529
		c3.165,0.072,6.257,0.216,9.35,0.287C4176.133,2318.535,4175.486,2322.778,4175.917,2327.741z M4284.67,2330.69
		c0.143,0.144,0.215,0.288,0.359,0.432c3.38,3.524,4.963,6.689,4.963,9.566c0,10.501-21.219,15.68-47.112,9.782
		c-26.54-6.042-51.499-24.742-32.15-34.525c0,0,0,0,0.144-0.072c25.102,2.733,46.104,7.049,62.791,11.58
		c16.687,4.459,29.202,9.063,37.401,12.371C4302.364,2336.444,4293.589,2333.424,4284.67,2330.69z M4398.384,2377.154
		c-6.474-5.034-13.09-9.782-19.852-14.313C4385.294,2367.301,4391.911,2372.048,4398.384,2377.154
		c6.474,5.035,12.802,10.357,18.988,16.04C4411.187,2387.583,4404.858,2382.261,4398.384,2377.154z M4473.475,2498.349
		c-19.206,14.889-72.79-54.52-53.657-69.337c2.373-1.87,5.61-2.085,9.422-1.222c3.309,1.079,5.466,1.294,11.509,5.178
		c2.517,2.877,4.818,5.754,7.049,8.631c12.227,15.824,22.513,31.935,30.928,47.615c-0.792-1.295-1.367-2.23-1.726-2.949v0.431
		c0,0.072,0,0.072,0,0.072C4477.431,2491.948,4476.352,2496.12,4473.475,2498.349z M4495.843,2725.347
		c-16.328,17.19-26.9-9.494-20.93-41.357c5.035-26.757,22.728-52.362,33.23-33.518c0,0.072,0,0.072,0,0.072
		c1.151,2.014,2.085,4.459,2.805,7.337C4516.63,2680.537,4507.136,2714.054,4495.843,2725.347z M4356.38,2811.873
		c24.382-4.531,45.457,4.603,32.654,19.708c-8.2,12.372-45.889,22.729-62.433,13.379c-4.243-2.446-6.185-5.467-6.185-8.703
		C4320.417,2826.834,4336.6,2815.614,4356.38,2811.873z M4117.874,2789.001c16.47-16.83,76.673,25.318,60.273,42.077
		c-1.942,2.014-5.106,3.093-8.774,3.308c-24.886,0-49.558-21.002-53.369-35.172c-0.359-1.295-0.503-2.589-0.503-3.812
		C4115.5,2792.957,4116.219,2790.727,4117.874,2789.001z M3916.051,1816.709c0.934,0,1.87,0.216,2.732,0.576
		c22.298,9.638-19.276,104.939-41.501,95.229c-2.732-1.223-4.386-4.315-5.25-8.487c-0.288-1.151-0.647-4.603-0.575-8.2v-0.072
		c0.287-0.791,29.921-69.768,30.281-70.559l0.071-0.072c0.863-0.935,4.1-3.812,4.604-4.171
		C3909.936,1818.22,3913.245,1816.709,3916.051,1816.709z M3973.591,1675.591c-2.806-1.079-4.676-3.812-5.826-7.48
		c-0.288-0.792-0.576-1.583-0.792-2.733c0-0.072,0.072-0.144,0.072-0.144c10.43-24.095,21.435-47.902,33.23-71.207
		C4032.426,1586.043,3999.268,1685.804,3973.591,1675.591z M4081.983,1482.11c-2.229-2.014-3.093-5.178-2.949-9.062
		c0-1.439,0.36-3.668,0.863-5.754c15.104-18.844,31.432-36.538,49.197-52.65c4.388-1.007,8.201-0.719,10.645,1.51
		C4158.08,1432.122,4100.251,1498.078,4081.983,1482.11z M4219.649,1353.292c3.236-1.511,6.401-3.237,9.71-4.747
		c-0.863,7.193,0.863,11.724,3.739,16.112C4227.417,1361.707,4222.885,1357.823,4219.649,1353.292z M4255.468,1346.675
		c-0.792-2.805,0.216-5.898,2.302-9.063c25.82-9.063,52.792-15.464,80.196-18.485
		C4356.308,1341.136,4262.876,1371.777,4255.468,1346.675z M4454.846,1344.013c-1.726-5.826-2.086-11.508-1.222-16.759
		c3.452,0.935,6.905,2.014,10.285,3.021C4458.082,1334.663,4456.068,1338.547,4454.846,1344.013z M4512.026,1385.658
		c-23.52-13.666-41.789-38.912-20.498-42.58c1.438-0.144,2.588-0.36,5.179-0.288c35.603,15.968,58.691,34.309,61.209,36.466
		c0.072,0.144,0.072,0.288,0.144,0.359v0.072C4568.777,1400.834,4540.079,1401.914,4512.026,1385.658z M4670.407,1563.171
		c-7.912,21.002-28.482,2.23-36.179-27.332c-6.257-24.383-0.934-53.729,16.615-41.501c4.459,3.165,8.415,8.272,11.652,14.385
		c2.589,5.754,4.819,11.508,6.833,17.262C4673.069,1539.436,4673.859,1553.821,4670.407,1563.171z M4565.467,1669.117
		c24.383-4.531,45.385,4.531,32.654,19.636c-0.646,0.935-3.236,3.38-5.465,5.034c-9.566,7.049-25.103,12.012-39.056,12.012
		c-6.617,0-12.875-1.151-17.981-3.668C4518.932,1692.565,4538.854,1674.08,4565.467,1669.117z M4534.324,1747.157
		c128.315,3.812,215.561-130.186,160.25-247.569c-67.97-144.283-229.228-261.09-436.303-196.717
		c-294.319,91.633-318.558,431.77-501.322,745.87c4.963-2.23,2.014-1.007,15.895-6.905h0.072c1.798-0.791,3.668-1.51,5.538-2.302
		c-126.014,52.29-248.863,143.923-312.013,219.373c-13.81,16.543,11.076,37.474,24.958,21.003
		c1.078-1.295,108.249-126.302,283.675-203.55c165.429-72.932,427.814-117.886,738.461,82.139
		c383.436,220.165,303.167,759.032,12.227,837.647c-235.269,63.583-429.325,24.095-500.243-209.088
		c77.751,65.956,251.38,175.571,438.675,46.392c100.912-69.624,119.54-215.921,45.385-355.744
		c-121.699-229.443-386.888-228.149-594.466-150.325c-172.046,64.446-314.099,199.378-506.932,337.835
		c2.374,0.503,11.437,2.445,13.594,2.949c0,0,0.072,0,0.072-0.072c5.107,1.151,10.142,2.446,15.248,3.668
		c-56.389-13.522-115.585-19.492-172.622-19.492c-85.735,0-166.508,13.594-225.056,35.675c-20.211,7.552-8.703,38.121,11.437,30.497
		c1.654-0.576,164.709-59.698,357.902-19.924c197.148,40.638,356.392,165.645,473.271,371.712
		c220.596,372.575-152.77,691.279-547.138,594.61c130.4-33.805,383.004-127.309,355.312-339.633
		c-28.266-156.079-160.825-277.202-322.227-294.464c-284.035-30.28-637.262,113.499-844.696-249.87
		c-0.144-0.144-0.287-0.575-0.575-1.151c0.359,0.576,0.575,1.007,0.647,1.151c20.068-32.007,39.2-67.035,56.678-104.652
		c3.739-8.128,0.215-17.837-7.913-21.65c-24.382-11.365-19.996,21.65-80.844,116.232c-0.072,0.072-0.144,0.144-0.144,0.216
		c-0.288,0.36-0.503,0.647-0.647,1.007l-0.072,0.072c-234.982,362.505-596.336,230.594-859.512,258.645
		c-161.474,17.334-294.032,138.601-322.371,295.256c-27.62,211.677,224.984,305.036,355.384,338.842
		c-395.807,97.172-767.087-222.898-546.923-594.826c116.736-205.923,275.908-330.858,473.056-371.497
		c193.696-39.847,356.32,19.348,357.902,19.924c20.212,7.624,31.432-23.016,11.437-30.497c-93.287-35.1-240.52-48.766-376.819-20.93
		c3.165-0.719,6.761-1.51,8.128-1.798c-193.48-138.889-334.959-273.462-506.932-337.835
		c-207.65-77.752-472.84-79.118-594.538,150.325c-74.155,139.823-55.527,286.12,45.457,355.744
		c187.222,129.107,360.851,19.492,438.603-46.392c-70.918,233.184-264.902,272.671-500.171,209.088
		c-291.012-78.687-371.209-617.482,12.875-838.078c308.921-198.947,570.443-155,736.016-82.499c1.222,0.72,2.373,1.295,3.668,1.655
		c174.276,77.32,280.654,201.464,281.732,202.687c13.882,16.543,38.84-4.531,24.958-20.931
		c-4.458-5.322-109.543-129.107-290.435-210.239c-183.627-315.826-206.427-654.092-501.322-745.87
		c-207.075-64.302-368.404,52.434-436.374,196.717c-26.037,55.455-21.578,119.109,12.012,170.249
		c96.596,147.232,320.213,61.568,443.782-66.459c9.71,78.758-34.885,169.457-118.39,239.225
		c-154.928,129.323-389.478,108.177-522.9-47.111c-248.288-289.213,70.559-818.73,573.967-777.733
		c588.281,48.118,885.766,1001.782,1035.802,1090.538c97.244,57.181,208.441,29.49,244.979-37.473l3.02-3.74v-1.798
		c31.288-64.374-5.897-136.659-52.433-190.459l-1.151-1.151C1103.611,1128.811,1600.401,32.52,2499.401,32.52
		c906.839,0,1388.958,1102.549,576.269,1841.371c-43.731,45.745-85.879,130.545-54.088,189.596
		c3.812,9.278,13.882,24.095,22.657,32.222c18.269,21.218,56.605,34.74,57.9,34.74h0.072c9.423,3.452,31.792,7.48,35.963,7.48
		c83.866,8.991,154.712-42.364,149.031-42.364c127.811-110.694,362.218-784.925,789.816-1009.837
		c324.889-167.155,692.213-21.146,835.274,259.868c217.503,427.239-260.803,742.705-555.052,497.007
		c-83.505-69.768-128.1-160.466-118.461-239.225C4284.382,1650.632,4391.264,1742.77,4534.324,1747.157z M4427.37,1691.99
		c-0.072,0-0.072,0-0.072,0h-0.071c-0.072-0.072-0.072-0.072-0.144-0.072c-1.726-0.647-3.452-1.439-5.179-2.158
		c1.655-1.223,3.668-1.942,6.761-7.552C4428.737,1685.661,4428.233,1688.897,4427.37,1691.99z"/>
	<path d="M3721.779,2497.27c-0.026-0.021-0.044-0.049-0.07-0.07c-0.902-0.188-1.863-0.267-2.736-0.505
		C3719.837,2496.911,3720.843,2497.055,3721.779,2497.27z"/>
	<path d="M2361.459,1396.707c-23.706,77.836,48.493,141.75,131.315,145.239c79.894,3.373,170.514-50.615,150.612-142.225
		C2581.969,1545.736,2418.921,1529.021,2361.459,1396.707z"/>
	<path d="M2888.603,867.858c35.466-2.862,64.64,23.606,64.64,56.62c0,31.072-26.563,56.311-59.592,56.311
		c-31.992,0-58.389-24.175-59.525-54.304c-89.275,142.066,9.106,331.821,176.11,331.821c115.527,0,208.865-96.222,208.865-215.029
		C3219.102,866.815,3025.744,767.169,2888.603,867.858z M3059.47,1159.55c-18.556,0-33.467-14.269-33.467-31.877
		c0-17.6,14.903-31.877,33.467-31.877s33.518,14.285,33.518,31.877C3092.988,1145.281,3078.033,1159.55,3059.47,1159.55z"/>
	<path d="M3296.588,1071.485c0-185.762-145.65-336.901-324.673-336.901s-324.673,151.137-324.673,336.901
		c0.007,185.757,145.643,336.901,324.673,336.901C3150.938,1408.386,3296.588,1257.256,3296.588,1071.485z M2971.915,1381.565
		c-164.242,0-297.867-139.105-297.867-310.087c0-170.989,133.632-310.101,297.867-310.101s297.866,139.105,297.866,310.101
		C3269.781,1242.46,3136.157,1381.565,2971.915,1381.565z"/>
	<path d="M1936.861,867.858c35.474-2.855,64.64,23.606,64.64,56.62c0,31.072-26.563,56.311-59.592,56.311
		c-31.978,0-58.389-24.175-59.525-54.304c-89.282,142.074,9.091,331.829,176.095,331.829
		c115.534-0.009,208.88-96.231,208.88-215.038C2267.359,866.815,2074.001,767.169,1936.861,867.858z M2107.72,1159.55
		c-18.557,0-33.467-14.269-33.467-31.877c0-17.6,14.917-31.877,33.467-31.877c18.563,0,33.51,14.285,33.51,31.877
		C2141.231,1145.281,2126.277,1159.55,2107.72,1159.55z"/>
	<path d="M2020.172,734.577c-179.03,0-324.673,151.13-324.673,336.901c0,185.762,145.65,336.901,324.673,336.901
		c179.023,0.007,324.673-151.137,324.673-336.901C2344.845,885.716,2199.196,734.577,2020.172,734.577z M2020.172,1381.565
		c-164.242,0-297.867-139.098-297.867-310.087s133.625-310.101,297.867-310.101c164.235,0,297.866,139.105,297.866,310.101
		C2318.038,1242.46,2184.414,1381.565,2020.172,1381.565z"/>
</g>
</svg>
