<?xml version="1.0" encoding="utf-8"?>

<svg version="1.1" id="Layer_1" xmlns="http://www.w3.org/2000/svg" xmlns:xlink="http://www.w3.org/1999/xlink" x="0px" y="0px"
	 viewBox="0 0 4305.271 5000" enable-background="new 0 0 4305.271 5000" xml:space="preserve">
<g>
	<path d="M996.856,3425.793c-57.459,96.136-121.5,183.782-186.771,255.301c-286.891,314.25-603.028,161.234-565.842-60.11
		l4.984-29.652l-29.277,6.858c-165.773,38.823-230.529-204.942-52.997-376.673l34.115-32.991l-47.441-1.397
		c-158.718-4.59-141.716-226.429-5.276-345.789c148.859-130.213,286.814-14.423,490.748-134.591
		c43.732-25.778,79.197-66.337,111.03-112.165c-8.66-10.458-17.289-21.471-25.848-33.081
		c-71.632,106.588-143.124,162.7-348.6,168.755c-85.748,2.53-166.736,4.92-253.668,80.963
		c-157.061,137.407-164.702,369.911-10.05,410.265c-163.185,189.144-89.522,437.051,89.756,420.129
		c-8.24,143.391,108.429,258.067,271.137,258.067c233.944,0,415.86-223.965,539.094-422.814
		C1006.695,3460.15,1001.705,3443.079,996.856,3425.793z"/>
	<path d="M782.744,2515.012c0.058,8.545,0.605,17.697,1.441,27.079c2.11-3.442,4.199-6.877,6.297-10.331
		C787.785,2526.031,785.172,2520.396,782.744,2515.012z"/>
	<path d="M4183.201,2811.221c-86.934-76.049-167.928-78.433-253.668-80.963c-245.237-7.232-299.088-82.008-400.501-252.49
		c-25.389-42.666-50.168-84.162-77.266-117.467c-8.623,10.191-17.678,20.267-27.021,30.265
		c35.873,45.675,69.172,108.844,106.479,167.934c87.175,138.101,168.373,205.023,397.13,211.754
		c81.778,2.409,152.391,4.506,228.508,71.076c97.729,85.512,124.12,205.042,99.304,274.099
		c-28.085,78.209-99.405,71.543-152.021,73.083l34.115,32.991c176.907,171.139,113.566,415.751-53.011,376.673l-29.277-6.858
		c6.513,38.779,13.038,68.304,2.441,111.776c-41.424,169.91-312.631,252.612-563.285-22.019
		c-67.548-74.001-133.768-165.277-192.736-265.364c-5.494,15.976-11.28,31.889-17.347,47.735
		c123.648,203.321,309.349,436.223,547.328,436.223c161.784,0,279.422-113.861,271.13-258.067
		c178.926,16.934,253.229-230.689,89.756-420.129C4348.299,3181.035,4340.001,2948.417,4183.201,2811.221z"/>
	<path d="M1500.222,4711.522l24.522-32.375l-2.135,0.274C1512.179,4692.805,1505.582,4702.638,1500.222,4711.522z"/>
	<path d="M1768.836,4176.363c-3.549,91.241-17.672,215.859,74.532,215.859c133.959-8.483,171.662,12.332,181.641,21.68
		c4.321,4.055,4.907,7.151,4.907,9.644c0,79.612-122.615,64.489-277.969,224.665c-167.844,173.031-214.959,348.555-290.543,311.248
		c-36.224-16.291-47.918-126.827,32.107-238.656l-28.952-17.404c5.646-9.375,7.666-12.836,10.776-17.588
		c-183.356,28.563-263.891,206.53-296.75,201.641c-33.68-3.149-47.421-102.204,13.708-216.528
		c61.856-115.699,366.031-180.515,400.769-236.175c21.962-35.129,17.13-162.224,10.554-251.495
		c-11.694-1.625-23.516-4.086-35.422-7.107c7.201,95.137,11.305,214.807-4.582,240.208
		c-25.148,40.22-333.184,109.616-401.955,238.189c-63.468,118.702-62.653,260.329,13.759,267.536
		c63.838,5.417,116.644-151.529,272.188-195c-69.707,114.95-59.588,237.501-1.013,263.79
		c75.864,37.519,126.623-47.869,177.889-123.426c104.594-154.093,177.831-245.281,341.181-331.259
		c57.465-30.247,98.978-52.092,98.978-112.641c0-73.594-149.338-70.716-222.767-66.011c-53.546-0.339-41.099-102.617-38.104-186.464
		C1792.575,4172.958,1780.989,4174.748,1768.836,4176.363z"/>
	<path d="M1652.977,4544.407l-15.914-19.271c-56.063,43.036-131.621,110.425-172.49,178.271c1.326,0.797,28.436,17.1,29.767,17.896
		C1532.284,4658.323,1598.883,4592.839,1652.977,4544.407z"/>
	<path d="M2730.264,4672.974l-2.167-0.28l24.452,32.229C2747.224,4696.094,2740.628,4686.286,2730.264,4672.974z"/>
	<path d="M2649.45,4174.309c-6.659,89.405-11.771,218.591,10.356,254.006c34.987,55.981,338.626,119.938,400.769,236.15
		c61.461,114.95,46.842,213.41,13.81,216.546c-33.114,3.818-114.752-173.305-296.852-201.66c2.989,4.575,4.212,6.697,10.764,17.569
		l-28.915,17.454c77.986,109.003,69.72,221.678,31.673,238.814c-74.353,36.688-124.221-140.401-290.134-311.453
		c-154.55-159.349-277.956-145.526-277.956-224.659c0-2.499,0.599-5.583,4.907-9.649c20.821-19.496,88.762-27.596,182.477-21.63
		c87.048,0,78.075-114.312,74.296-201.277c-12.147-0.853-23.777-2.116-34.924-3.697c3.505,83.097,10.253,169.947-38.728,170.246
		c-73.264-4.683-222.767-7.596-222.767,66.01c0,60.543,41.513,82.403,99.048,112.681
		c163.613,86.119,236.921,177.742,341.253,331.449c49.028,72.243,101.527,160.954,177.333,123.379
		c64.749-29.098,63.423-158.331-0.612-263.985c154.984,43.322,208.401,200.455,272.246,194.994
		c77.253-7.303,76.686-149.727,13.708-267.517c-68.445-128-377.01-198.308-401.942-238.189
		c-15.506-24.816-12.217-140.6-4.346-242.822C2673.686,4169.753,2661.87,4172.149,2649.45,4174.309z"/>
	<path d="M2615.819,4518.685l-15.914,19.265c54.559,48.752,120.882,114.247,158.648,176.939c1.319-0.79,28.316-17.093,29.749-17.958
		C2747.759,4629.676,2671.265,4561.257,2615.819,4518.685z"/>
	<path d="M1998.905,4063.987c-42.795,30.194-142.984,79.497-347.077,87.171c-48.441,2.013-100.483-11.293-153.562-38.5
		c-194.655-99.748-340.576-341.348-420.149-550.379c-81.529-214.175-131.932-483.364-115.561-797.754
		c-11.573-8.928-22.758-18.238-33.343-27.913c-47.593,751.662,296.712,1352.555,638.983,1439.533
		c115.841,29.438,392.809-12.923,480.081-108.262l3.384-0.025C2034.365,4067.391,2017.47,4066.224,1998.905,4063.987z"/>
	<path d="M3475.071,485.763c81.484,0.815,139.013-12.733,177.728-27.857c-92.025,117.218-211.34,194.999-344.623,256.256
		c312.536,455.359,432.646,947.632,414.554,1244.637c-34.063-83.135-70.319-100.271-95.874-115.847
		c-12.849,190.372-103.044,404.808-254.471,551.386c0.223-0.196,7.406-6.793,9.866-9.055l23.172,25.218
		c135.368-135.133,221.779-321.261,249.718-500.882c46.134,58.064,58.369,138.389,75.283,215.328l16.416-80.113
		c48.728-237.584-39.594-801.054-386.895-1316.46c270.085-130.396,364.927-315.072,365.94-317.105l55.846-111.609l-84.116,92.031
		c-0.535,0.56-52.303,53.195-191.96,58.898c4.741-7.201,9.189-14.702,13.415-22.375
		C3505.03,448.431,3490.672,467.002,3475.071,485.763z"/>
	<path d="M3539.954,263.214c-9.139,42.303-25.135,99.814-51.022,147.508c0.307-0.447,6.066-8.699,8.094-11.599l27.392,19.068
		c42.233-82.568,57.025-183.107,59.963-206.032c1.581-2.256,3.664-5.348,6.124-9.164
		C3574.712,222.86,3557.881,242.961,3539.954,263.214z"/>
	<path d="M919.252,2727.187c-1.064-1.039-2.161-2.06-3.205-3.109C917.105,2725.133,918.182,2726.154,919.252,2727.187z"/>
	<path d="M750.127,2594.584c9.216,11.128,8.106,9.731,64.609,74.073c-19.049-66.739-31.61-99.808-31.992-153.638
		c30.418,67.482,73.116,145.168,123.902,199.41l24.421-24.421l8.176,8.178c-79.094-79.413-132.601-210.102-170.853-315.442
		c-12.369,52.801-23.892,88.347-19.718,153.315c-275.445-380.339-209.109-1021.43-115.93-1483.826
		c-119.964,2.351-254.249-11.739-348.422-86.749c38.021-3.11,91.222-11.229,123.406-32.235c-14.135-1.435-19.17-2.409-33.165-4.735
		l5.71-34.255c3.569,0.599,13.631,2.244,14.269,2.345c-39.862-9.374-187.996-53.781-303.798-215.495
		c582.538-120.314,982.574-35.428,1304.739,32.904c618.717,131.232,701.635,61.34,997.378-148.821
		c367.165-260.966,691.298-440.293,1229.596-523.366c-13.052,48.384-34.732,100.674-60.753,141.576
		c0.401-0.504,6.756-8.456,8.999-11.28l26.066,20.782c40.029-66.527,56.739-128.147,71.167-192.903
		c-1039.949,151.205-1331.52,669.032-1644.156,730.262c-497.753,97.55-934.993-298.783-1990.533-72.453
		c80.987,123.144,176.971,215.252,316.692,262.157c-50.747,13.396-106.524,12.682-140.74,12.682l20.08,27.575
		c3.798,5.239,94.664,125.961,360.951,127.3C497.446,1559.656,441.568,2221.888,750.127,2594.584z"/>
	<path d="M3380.943,2434.063c4.819-4.422,9.483-8.903,14.135-13.384c-15.327,14.04-30.679,27.041-45.93,39.149
		c29.788,249.226,70.522,949.186-329.812,1370.261c-175.728,205.497-187.696,294.742-439.223,318.296
		c-109.532,10.278-228.183-8.38-303.901-84.283c-20.706,1.69-30.749,2.051-43.865,2.608
		c42.655,57.412,128.721,109.112,252.312,117.816c53.839,3.777,111.597-0.962,164.797-10.222
		c206.446-35.919,240.12-138.817,395.67-320.981C3382.064,3498.976,3442.741,2910.904,3380.943,2434.063z"/>
	<path d="M3432.519,485.069c0.822-1.007,1.638-2.027,2.46-3.04l-2.703,3.034L3432.519,485.069z"/>
	<path d="M942.813,2701.661c7.048,6.908,14.473,13.695,22.178,20.36l0.058-0.809
		C957.031,2714.594,952.212,2710.794,942.813,2701.661z"/>
	<path d="M2227.923,4032.104l12.472-0.529l-188.69,1.509c0.076,0,9.541,0.249,12.733,0.324l-0.854,34.326l165.849-1.338
		L2227.923,4032.104z"/>
	<path d="M1203.913,2894.464l9.125-23.279c-83.231-34.401-204.533-103.731-281.972-181.178l-24.561,24.568
		C988.06,2796.122,1109.103,2860.119,1203.913,2894.464z"/>
	<path d="M3405.765,2410.864c-0.632-0.681-22.879-24.891-23.51-25.576c-109.787,100.94-233.275,169.119-310.185,193.737
		l6.723,24.063C3157.519,2584.751,3289.332,2518.065,3405.765,2410.864z"/>
	<path d="M2064.439,4033.417c-119.161-3.021-224.869-35.229-317.334-114.203c-35.994-30.751-53.966-55.86-54.406-56.489
		l-20.928,13.658c0.35,0.579,11.955,19.004,35.817,44.203c84.932,89.713,201.621,143.64,355.979,147.558
		C2063.585,4067.453,2064.413,4034.098,2064.439,4033.417z"/>
	<path d="M2276.206,4064.102c242.911-19.897,320.094-132.646,323.396-137.662l-20.463-14.364c-0.229,0.305-7.1,9.037-22.47,21.667
		c-87.054,71.537-216.081,93.587-328.736,98.354c0.025,0.663,1.478,33.949,1.511,34.728
		C2246.132,4066.122,2255.488,4065.798,2276.206,4064.102z"/>
	<path d="M2756.388,3646.599c119.091,6.264,192.125-91.816,276.752-183.91l-100.201,58.841
		c-147.374,86.564-276.375,41.449-329.335,1.148l-98.577-74.954l74.174,99.254
		C2582.093,3550.806,2651.399,3641.334,2756.388,3646.599z M2899.627,3566.458c-87.546,73.634-180.075,72.57-262.464,4.079
		C2699.338,3597.589,2793.695,3612.177,2899.627,3566.458z"/>
	<path d="M2990.785,3000.8c-147.393,86.564-276.369,41.437-329.335,1.167l-98.736-75.187l74.308,99.381
		c2.874,3.868,71.549,94.396,177.232,99.699c121.341,6.423,197.543-97.71,276.822-184L2990.785,3000.8z M2694.634,3049.649
		c62.149,27.181,156.705,41.922,262.859-3.912C2867.921,3121.083,2774.819,3116.612,2694.634,3049.649z"/>
	<path d="M2365.191,3268.383c-147.438,86.539-276.369,41.449-329.335,1.161l-98.577-74.972l74.156,99.207
		c2.88,3.849,71.823,94.39,177.219,99.68c117.982,6.251,190.666-90.229,276.752-183.91L2365.191,3268.383z M2069.168,3317.294
		c62.167,27.147,156.654,41.869,262.705-3.958C2241.919,3388.953,2149.085,3383.936,2069.168,3317.294z"/>
	<path d="M1738.514,2978.134l-100.183,58.816c-147.419,86.551-276.375,41.455-329.335,1.167l-98.641-75.035l74.213,99.254
		c2.874,3.868,71.549,94.39,177.232,99.692C1580.923,3168.367,1654.576,3069.496,1738.514,2978.134z M1342.148,3085.799
		c62.167,27.219,156.711,41.959,262.884-3.912C1515.895,3156.869,1422.734,3153.16,1342.148,3085.799z"/>
	<path d="M1594.669,3544.355l-98.672-75.034l74.244,99.279c39.913,53.227,113.292,99.954,186.81,99.954
		c114.324,0,183.344-92.943,267.16-184.165l-100.201,58.841C1776.642,3629.761,1647.641,3584.672,1594.669,3544.355z
		 M1628.012,3592.134c62.167,27.156,156.641,41.832,262.699-3.977C1802.014,3662.771,1709.172,3659.797,1628.012,3592.134z"/>
	<path d="M3570.704,172.112c-101.483,127.37-208.249,230.235-267.485,276.064l14.792,20.152
		c70.842-49.263,179.902-148.955,279.842-274.572C3595.896,192.2,3577.364,177.414,3570.704,172.112z"/>
	<path d="M3497.033,399.129c-46.772,67.184-104.649,137.037-154.875,189.085l17.289,18.036
		c53.067-47.103,115.746-114.95,166.085-187.288C3522.129,416.597,3499.798,401.054,3497.033,399.129z"/>
	<path d="M590.173,917.746c30.986-7.048,51.148-13.581,51.57-13.728l-7.054-23.969c-75.736,18.055-168.731,28.462-254.428,14.205
		l-5.71,34.255C430.874,937.873,493.457,939.753,590.173,917.746z"/>
	<path d="M1827.869,2200.074c-3.888-15.167-7.342-29.64-10.407-43.151c-357.332,474.893-930.775,257.939-982.868-121.176
		c-70.154-510.568,110.156-858.563,482.324-930.852c319.088-61.978,597.19,227.922,741.359,511.62
		c40.239-101.463,77.087-188.047,140.676-289.702c444.978-711.425,1141.363-271.404,1141.363,458.329
		c0,552.911-700.629,625.882-961.716,359.021c-1.97,13.275-4.168,27.085-6.641,41.353
		c295.947,267.051,1003.076,173.859,1003.076-400.38c0-836.896-885.961-1293.556-1321.149-250.922
		c-159.808-274.292-430.614-524.123-743.576-463.434c-448.375,87.087-572.507,515.75-510.122,969.696
		C855.198,2441.045,1448.73,2673.073,1827.869,2200.074z"/>
	<path d="M2378.587,2144.162c14.696-98.921,15.55-151.026,15.55-148.809c0.103,14.518-19.66,54.82-48.052,102.835
		c-20.757,156.271-80.44,434.023-218.885,508.809c-176.818-58.184-258.397-390.458-282.334-510.128
		c-25.447-30.265-38.034-46.904-49.53-61.869c28.423,214.564,126.331,553.802,335.51,613.511
		C2291.539,2570.443,2352.463,2320.096,2378.587,2144.162z"/>
	<path d="M2112.593,2534.583c59.67,2.847,138.198-177.45,158.616-321.348c-6.093,8.558-12.186,16.947-18.227,25.059
		c-27.283,149.581-99.794,276.943-135.279,282.532c-98.577-85.543-144.614-214.99-165.882-308.03
		c-6.042-5.887-12.019-11.809-17.863-17.722C1959.948,2322.785,2014.086,2449.886,2112.593,2534.583z"/>
	<path d="M2260.006,1730.877c-108.525-32.559-226.24-21.597-332.68,12.344c7.61,99.979-32.941,208.453-118.39,278.697
		l-14.498,11.918c73.034,94.962,225.717,271.939,338.186,306.085c14.339,4.347,28.876-3.003,40.85-12.005
		c68.847-51.603,220.925-295.349,220.669-332.552C2393.774,1941.796,2270.552,1908.683,2260.006,1730.877z M2355.382,1995.163
		c-3.798,29.814-162.969,286.266-213.685,306.978c-103.676-33.324-255.262-215.009-293.748-262.731
		c106.811-97.494,118.657-224.947,119.441-267.752c38.97-10.229,155.341-36.084,255.842-10.974
		C2238.197,1902.679,2347.48,1974.183,2355.382,1995.163z"/>
	<path d="M1510.273,959.668c-100.629-108.206-274.961-121.29-389.285,70.166C1120.994,1029.834,1310.896,912.203,1510.273,959.668z"
		/>
	<path d="M2913.367,848.479c-152.205-162.969-319.833-113.342-395.308,13.695C2702.887,773.649,2913.367,848.479,2913.367,848.479z"
		/>
	<path d="M2758.778,1831.634c140.925,0,254.797-121.844,254.797-272.285c0-223.563-236.207-349.831-403.459-222.116
		c43.049-3.767,79.145,29.462,79.145,71.677c0,39.347-32.4,71.307-72.69,71.307c-39.098,0-71.358-30.724-72.62-68.993
		C2434.503,1591.73,2555.685,1831.634,2758.778,1831.634z M2818.837,1625.851c22.649,0,40.883,18.079,40.883,40.354
		c0,22.299-18.24,40.354-40.883,40.354c-22.637,0-40.825-18.061-40.825-40.354
		C2778.012,1643.938,2796.194,1625.851,2818.837,1625.851z"/>
	<path d="M1309.5,1491.255c43.056-3.761,79.145,29.469,79.145,71.677c0,39.347-32.4,71.307-72.69,71.307
		c-39.098,0-71.358-30.724-72.62-68.993c-109.443,180.513,11.745,420.411,214.832,420.411c140.925,0,254.79-121.844,254.79-272.285
		C1712.958,1489.808,1476.751,1363.554,1309.5,1491.255z M1518.221,1860.592c-22.643,0-40.825-18.067-40.825-40.36
		c0-22.274,18.188-40.354,40.825-40.354c22.649,0,40.883,18.08,40.883,40.354
		C1559.102,1842.525,1540.864,1860.592,1518.221,1860.592z"/>
	<path d="M2709.348,2023.493c218.566,0,396.385-191.227,396.385-426.293c0-235.054-177.811-426.286-396.385-426.286
		c-218.56,0-396.366,191.227-396.366,426.286C2312.984,1832.264,2490.795,2023.493,2709.348,2023.493z M2709.348,1204.218
		c200.2,0,363.067,176.295,363.067,392.975c0,216.693-162.866,392.988-363.067,392.988c-200.194,0-363.06-176.289-363.06-392.988
		C2346.288,1380.511,2509.156,1204.218,2709.348,1204.218z"/>
	<path d="M1411.41,1322.799c-218.56,0-396.366,191.227-396.366,426.293c0,235.054,177.819,426.287,396.366,426.287
		c218.566,0,396.378-191.227,396.378-426.286C1807.788,1514.026,1629.97,1322.799,1411.41,1322.799z M1411.41,2142.061
		c-200.194,0-363.06-176.289-363.06-392.982s162.866-392.988,363.06-392.988c200.2,0,363.067,176.295,363.067,392.988
		C1774.483,1965.772,1611.602,2142.061,1411.41,2142.061z"/>
</g>
</svg>
