<?xml version="1.0" encoding="utf-8"?>

<svg version="1.1" id="Layer_1" xmlns="http://www.w3.org/2000/svg" xmlns:xlink="http://www.w3.org/1999/xlink" x="0px" y="0px"
	 viewBox="0 0 4578 5000" enable-background="new 0 0 4578 5000" xml:space="preserve">
<g>
	<path d="M4571.667,911.054c58.893-456.16-301.504-822.65-727.045-822.65c-213.732,0-422.471,77.703-562.185,241.345
		C2975.39,43.158,2625.367,0,2443.118,0c-63.558,0-107.622,5.283-121.939,7.284C2306.878,5.289,2262.865,0,2199.262,0
		c-183.963,0-538.832,44.032-847.914,337.894c-138.797-168.455-351.185-249.49-569.136-249.49
		c-425.535,0-785.929,366.471-727.074,822.65l0.013,0.084c70.978,520.441,400.599,628.39,620.263,640.716
		c-86.227,169.27-72.395,305.006-42.688,487.24c23.522-59.632,31.992-89.376,77.897-146.119
		c-39.31,211.065,59.024,494.024,178.568,580.229l24.704,17.791c0-39.141-0.86-66.539,7.461-120.732
		c69.608,214.255,237.92,411.024,384.932,442.596l28.862,6.248c-14.909-38.351-26.34-64.131-33.957-123.429
		c110.584,106.272,342.597,152.059,495.828,158.966c-38.568,77.299-126.142,118.965-208.449,145.853
		c-80.254,26.21-306.003,129.145-306.662,452.853c-190.888-109.084-436.294-35.247-553.979-35.247
		c-196.184,0-315.043-107.884-326.102-295.973c-12.75-217.267-456.792-230.01-396.138,137.714
		c45.86,278.466,237.048,402.443,516.866,396.523l12.202-0.013l-0.188-0.274c125.55-4.305,156.839-24.618,262.697-24.618
		c151.728,0,287.022,47.325,378.274,111.498c-96.223,19.95-140.421,45.969-185.879,69.096l0.697,0.255
		c-82.228,50.242-139.937,124.318-154.511,220.378l-1.71,8.308l0.71-0.175c-2.662,21.207-3.242,43.262-1.761,66.122l-0.411-0.137
		c5.334,43.118,8.674,82.196,37.492,155.915c-77.505-28.48-183.825-59.259-295.167-66.484l-0.347-0.058
		c-107.154-6.795-215.187,8.719-309.493,60.928C19.936,4392.772,44.28,4686.573,206.592,4754.86
		c0.729,7.056,2.36,14.176,4.703,21.293l1.044,7.257l1.493-0.217c37.205,92.357,191.914,156.135,314.696,97.821
		c0.131,0.236,0.293,0.462,0.424,0.691l1.544,6.019l1.86-0.478c59.135,93.434,274.135,126.445,379.251,33.416l0.162,0.169
		c14.724-14.087,27.385-27.885,38.699-48.885c36.193-1.58,96.968-11.034,168.977-25.608c43.739,53.298,125.961,103.852,185.5,86.943
		c1.649,1.43,9.62,8.333,12.712,11.25l0.541-0.573c86.179,65.676,198.46,76.13,296.934,17.953
		c10.46,6.111,5.757,3.614,18.762,10.336l1.755-3.385c151.298,51.375,392.055-7.2,471.229-193.098
		c96.57,18.233,217.894,19.637,310.732,8.238c81.467,174.323,312.729,237.445,467.539,184.876l1.755,3.385
		c13.024-6.745,8.302-4.232,18.762-10.336c98.344,58.088,210.615,47.822,296.935-17.953l0.541,0.573
		c3.092-2.914,11.065-9.827,12.712-11.25c60.466,17.157,142.022-33.951,185.5-86.944c72.01,14.568,132.781,24.039,168.977,25.608
		c11.419,21.201,23.751,34.584,38.698,48.885l0.156-0.168c105.986,93.796,320.918,58.75,379.251-33.416l1.86,0.478l1.544-6.018
		c0.131-0.236,0.299-0.456,0.424-0.691c120.952,57.447,276.663-3.398,314.697-97.821l1.493,0.21l1.044-7.25
		c2.34-7.107,3.977-14.237,4.703-21.293c232.357-97.757,153.794-591.732-368.068-558.682l-0.347,0.057
		c-111.342,7.219-217.658,38.008-295.167,66.479c28.133-71.958,32.091-112.183,37.492-155.916l-0.405,0.137
		c1.487-22.857,0.901-44.915-1.761-66.122l0.71,0.175l-1.71-8.289c-14.6-96.242-72.433-170.26-154.505-220.391l0.71-0.261
		c-68.704-34.928-116.656-61.549-253.332-80.225l-0.006,0.013c-31.25-3.882-59.123-5.7-81.132-6.464
		c4.917-19.01,9.789-38.25,14.549-57.909c120.031-495.118-183.233-635.688-279.026-666.97
		c-72.551-23.698-152.084-60.135-195.152-123.229c0.522-1.01,1.063-1.978,1.579-2.993l3.633,1.929
		c4.156-7.827,7.747-15.221,11.107-22.389c170.907,11.737,463.38-38.587,587.761-158.138c-7.709,60.259-20.609,89.227-34.05,123.458
		l28.942-6.26c147.05-31.575,315.368-228.354,384.945-442.628c8.406,54.655,7.473,84.145,7.473,120.764l24.704-17.791
		c119.532-86.186,217.869-369.144,178.568-580.21c45.873,56.742,54.747,87.413,77.859,146.02
		c13.995-85.294,28.786-166.38,21.007-265.708l0.672,0.385c-9.652-73.157-17.294-129.809-64.842-222.811
		C4185.764,1534.468,4502.288,1419.886,4571.667,911.054z M2950.934,144.775c-72.974,50.56-184.596,152.693-280.341,345.14
		c12.938-186.936,48.369-335.488,72.512-419.033C2809.055,87.692,2879.199,111.444,2950.934,144.775z M2321.828,40.315
		c41.861-6.098,93.608-7.956,136.303-7.395c-54.76,241.65-117.124,528.835-142.707,780.893
		c-53.894-308.091-151.655-627.02-200.919-777.887C2239.683,26.901,2314.667,39.885,2321.828,40.315z M1899.382,71.291
		c24.143,83.643,59.463,232.026,72.375,418.609c-87.243-175.335-187.666-275.713-260.022-330.42
		C1772.126,122.66,1834.964,94.338,1899.382,71.291z M89.328,906.592C33.08,471.027,377.588,122.843,782.208,122.843
		c209.867,0,412.982,78.133,544.375,239.245c-63.794,63.988-125.375,138.945-182.736,226.933l-0.045-0.939
		c-26.334,43.301-47.828,76.365-81.069,140.027C784.702,485.283,243.756,602.852,302.136,869.382l0.013,0.118
		c77.343,337.626,308.853,456.754,484.027,497.78c-32.693,53.469-64.803,101.447-92.675,150.913
		C485.679,1510.716,158.694,1415.452,89.328,906.592z M992.202,879.399c-8.817,21.214-17.431,42.911-25.818,65.149l-0.143-0.189
		c-35.033,96.804-46.987,138.391-46.752,137.653c-29.184,91.691-66.552,172.192-114.615,254.114
		c-167.334-36.755-394.345-147.749-469.112-474.133c-49.153-224.696,454.009-335.787,710.633-101.865
		c-25.576,51.461-40.51,87.061-54.251,119.277L992.202,879.399z M975.794,1011.581c40.281,58.217,103.964,161.177,126.757,259.18
		c-45.166-17.757-125.48-44.085-204.74-44.144C937.802,1138.435,949.278,1087.96,975.794,1011.581z M1118.953,691.712
		c8.738,72.7,28.095,152.979,48.618,214.307c-39.975-24.683-88.561-40.171-130.95-49.791
		C1061.617,799.374,1087.651,746.792,1118.953,691.712z M1509.983,2267.305l1.63-1.449v-5.276
		c5.452-22.369,8.531-29.744,10.878-36.839c131.282-41.189,312.162-77.012,424.146,4.792c15.574,11.451,33.827-14.412,18.096-27.461
		c-105.476-87.53-302.208-48.063-432.512-4.127c9.292-23.293,19.173-45.284,37.387-73.621
		c123.677-192.63,293.83-159.566,466.176-126.327c1.407,93.615,125.849,205.762,280.271,205.762
		c158.966,0,287.216-107.813,289.942-198.441c187.296-32.927,318.362-60.936,425.404,63.179
		c30.254,35.587,53.684,74.474,72.06,118.337c-136.141-46.328-305.646-80.317-426.792-3.528c-2.146,1.35-3.888,2.407-8.903,6.585
		c-15.625,12.992,2.36,38.848,18.109,27.455c111.58-82.39,295.686-45.539,427.948-3.614
		c36.813,104.76,40.405,227.023,16.982,331.802c-57.187-58.4-180.329-175.432-300.469-233.72
		c11.766-25.035,16.944-42.794,17.112-43.399l-16.017-5.053c-0.188,0.554-6.273,17.138-19.147,40.138
		c-46.054-20.048-91.351-31.492-137.889-23.646c-12.664,2.184-15.227,20.112-7.149,29.092
		c12.422,13.794,34.132-15.469,128.785,20.915c-17.176,25.388-41.014,53.62-72.478,76.254
		c-28.655-31.486-67.86-64.921-108.04-79.384c-17.268-6.365-26.092,25.471-10.174,31.903c28.302,11.549,57.311,29.34,91.691,63.988
		c-29.744,15.979-64.915,26.522-106.189,26.522c-103.639,0-235.678-26.535-276.233-152.928l-19.981-62.189l-10.983,64.797
		c-1.083,6.378-28.748,155.88-244.547,150.136c-39.351-1.016-72.465-7.505-100.416-17.418
		c33.292-32.757,61.511-49.875,88.781-60.839c15.444-6.19,7.012-38.17-10.46-31.805c-40.603,14.903-79.282,47.742-108.387,79.789
		c-38.686-19.752-64.784-46.471-82.32-72.048c106.396-44.43,125.413-10.272,139.004-25.563c8.072-9.085,5.401-26.939-7.161-29.021
		c-50.143-8.875-100.872,6.286-147.611,27.904c-14.25-28.381-18.22-50.894-18.625-53.423l-16.663,2.121
		c0.064,0.735,2.875,26.671,16.826,60.272c-111.991,57.25-224.826,162.618-282.971,221.273
		C1503.044,2505.199,1479.633,2398.332,1509.983,2267.305z M1824.185,2166.822c61.836,5.763,110.597,28.582,130.734,46.949
		c-0.032,0.337-0.156,0.691-0.312,1.003C1922.35,2191.22,1882.735,2173.716,1824.185,2166.822z M2067.321,1995.381
		c0-87.818,155.848-100.932,248.74-100.932c441.335,0,230.577,276.716,0,276.716
		C2182.099,2171.159,2067.321,2074.506,2067.321,1995.381z M2810.581,2154.438c-59.39,6.652-100.273,24.369-132.613,48.102
		c-0.131-0.392-0.21-0.901-0.111-1.512C2701.949,2180.928,2748.185,2159.889,2810.581,2154.438z M2785.883,2308.815
		c-32.464-11.008-73.882-19.402-107.317-12.606c-0.124-0.666-0.169-1.436-0.086-2.041
		C2714.645,2288.219,2749.404,2295.145,2785.883,2308.815z M2686.419,2390.161c-26.789-23.268-50.21-36.957-73.621-46.545
		c0-0.586,0.086-1.293,0.217-1.942C2631.809,2348.848,2659.162,2365.107,2686.419,2390.161z M1947.863,2400.758
		c26.713-24.207,53.541-39.893,71.611-46.895c0.156,0.646,0.229,1.356,0.229,1.942
		C1993.115,2366.575,1970.042,2381.767,1947.863,2400.758z M1854.471,2318.206c31.871-11.059,65.943-17.724,99.576-11.817
		c0.064,0.605,0.013,1.357-0.111,2.016C1923.363,2302.026,1884.365,2308.917,1854.471,2318.206z M1537.224,2779.726
		c-10.174-76.719-18.704-156.141-25.251-208.437c55.992-53.117,177.896-161.51,293.19-216.222
		c16.772,30.149,42.8,62.409,82.724,87.03c-104.667,131.126-166.812,331.223-178.902,372.593
		C1646.652,2807.082,1592.357,2795.459,1537.224,2779.726z M1832.506,2855.563c18.033,0.092,35.594-0.319,56.448-1.748
		c3.359,7.174,6.958,14.562,11.107,22.389l3.659-1.936c24.108,47.777,52.856,86.198,84.441,117.019
		c-1.605,77.872-11.075,152.562-28.595,228.791c-62.918-81.798-130.142-173.359-189.29-279.032
		C1797.492,2916.902,1818.877,2888.371,1832.506,2855.563z M1745.206,2960.94c41.09,72.78,89.526,143.497,121.525,188.194
		c-88.275-41.654-164.417-93.067-220.059-135.6C1685.102,2998.021,1717.885,2980.578,1745.206,2960.94z M1378.956,3203.172
		c51.219,35.75,116.21,94.331,166.694,184.029c-45.774-2.401-138.529-3.334-229.109,19.055
		C1322.422,3334.606,1341.295,3264.756,1378.956,3203.172z M37.395,3254.633c-53.136-322.908,322.224-303.134,332.35-130.638
		c6.744,114.573,49.7,202.084,123.098,257.503c-54.362,34.212-63.46,32.438-124.76,42.793
		c45.981,24.462,64.405,32.875,113.962,68.698c-37.269,10.486-76.49,18.899-107.702,25.837
		c45.064,26.993,39.612,15.463,99.789,105.171C226.57,3614.728,75.775,3487.544,37.395,3254.633z M797.27,3599.322
		c-112.383,0-154.036,23.739-284.659,25.089c-24.716-36.078-44.749-68.051-63.695-90.137c58.002-14.145,68.806-19.211,99.092-30.572
		c-23.685-18.599-51.971-41.307-91.822-66.558c23.627-9.508,43.727-22.781,65.475-36.396
		c55.413,32.413,124.76,49.478,206.313,49.478c126.633,0,370.963-76.665,554.912,41.711c4.436,87.167,21.507,157.074,41.227,233.414
		c-25.14,0.847-53.391,3.019-81.132,6.464l-0.006-0.013c-6.423,0.879-13.087,1.675-24.841,3.477
		C1122.58,3658.381,972.027,3599.322,797.27,3599.322z M1225.903,3766.589c27.156,50.901,57.524,117.312,70.067,178.928
		c-44.169-34.629-129.645-96.203-225.457-136.943C1119.287,3788.332,1172.672,3774.722,1225.903,3766.589z M931.599,3902.202
		c46.217,11.505,105.065,39.004,151.871,103.39c-66.695-14.164-139.917-18.488-206.806-6.703
		C888.102,3961.776,906.16,3930.59,931.599,3902.202z M930.485,4320.929c-4.14-9.26-16.44-36.794-16.552-37.03
		c154.142,73.627,199.021,123.751,239.955,162.064c-29.764-86.042-75.041-253.806-287.62-328.15
		c-2.987-29.98-2.197-58.368,2.34-85.125c119.439-25.602,243.458,12.619,244.728,13.017l37.823,11.916
		c-40.994-73.703-83.813-146.171-193.7-180.858c21.886-19.154,46.764-35.68,73.726-49.799
		c109.899,40.823,216.257,116.335,304.217,193.289c-3.455-52.028-2.414-116.258-76.149-258.045
		c24.834-2.758,49.395-4.331,73.223-4.897c82.339,308.293,180.364,530.205,190.471,612.921
		c-109.762,22.519-309.649-48.481-427.773,182.039c-15.893,30.996-26.117,62.3-30.977,93.249
		c-184.523-123.888-317.346-323.476-420.141-409.355C752.716,4252.721,837.418,4283.548,930.485,4320.929z M871.467,4153.435
		c63.565,25.134,152.973,78.381,208.797,188.411c-37.186-25.589-96.974-61.816-183.857-100.913
		C885.083,4210.529,876.753,4181.352,871.467,4153.435z M1329.026,3604.984c35.562,12.75,83.454,24.417,139.72,24.417
		c108.412,0,204.864,40.323,287.432,120.032c-59.228-15.587-151.941-27.99-231.354,13.995
		c-39.918,21.115-91.978,24.493-154.689,10.062C1356.946,3725.257,1338.203,3654.031,1329.026,3604.984z M1427.755,3966.766
		c67.045-25.875,202.711-62.017,325.51,4.853c-68.65,8.483-198.088,33.795-288.187,107.747
		C1453.162,4044.402,1440.61,4006.84,1427.755,3966.766z M1500.666,4182.546c121.063,7.846,215.761,59.346,271.285,98.401
		c-101.604-20.373-185.991-9.215-237.353,2.98C1525.602,4255.036,1514.084,4221.308,1500.666,4182.546z M961.044,4838.999
		c20.418-64.759,18.064-136.421,17.902-140.732l-16.788-0.223c-3.449,54.662-23.341,148.824-63.004,190.111
		c-87.975,92.742-292.792,57.616-340.11-18.892c-46.061-184.622,92.004-334.21,93.414-335.69l-11.849-11.909
		c-1.557,1.468-147.26,140.621-118.525,326.532c-110.265,57.963-251.1-3.162-279.268-79.047
		c-31.295-223.228,167.71-372.131,169.725-373.612l-9.572-13.801c-2.086,1.376-192.343,129.569-195.27,338.031
		c-189.519-100.541-102.002-520.146,363.374-491.539c101.381,33.617,258.15,305.039,490.001,453.668
		c-0.771,46.825,11.237,92.917,37.721,135.574C1039.868,4829.032,991.83,4836.429,961.044,4838.999z M1621.442,4928.092
		c-33.983-22.558-56.384-52.407-66.415-89.128c-29.111-106.638,51.251-239.519,54.69-245.132l-13.845-9.496
		c-83.508,111.125-119.805,267.248-10.343,357.133c-159.676,82.406-336.021-42.252-329.194-191.104
		c5.375-118.156,125.474-214.268,126.683-215.232l-9.795-13.628c-5.837,3.808-142.93,94.892-149.021,227.297
		c-2.519,55.145,16.081,107.31,55.301,155.593c-43.844-0.21-112.631-37.001-154.224-105.059
		c-29.913-48.942-54.474-129.014-1.493-232.443c110.689-215.904,303.707-137.72,415.839-167.541
		c128.861,43.551,344.883,340.887,557.555,273.645C2074.078,4938.319,1754.87,4997.63,1621.442,4928.092z M2099.323,4637.87
		c-192.872,76.054-405.136-214.684-544.035-267.005c-1.443-15.246-5.483-34.043-11.725-56.553
		c152.489-35.718,266.556,7.865,350.863,35.985l-44.647-46.302c-5.811-6.012-142.576-145.114-360.251-153.578
		c-4.337-12.521-8.805-25.414-13.415-38.816c115.567-103.148,322.861-112.494,324.988-112.58l44.443-1.729l-35.594-26.678
		c-142.949-107.224-311.477-64.667-391.781-34.002c-12.775-40.66-25.726-83.67-38.523-128.897
		c63.135,11.868,116.844,6.417,159.943-16.367c111.902-59.177,262.394,6.626,263.888,7.298
		c37.966,16.931,24.299,10.833,62.084,27.691c-96.949-116.421-197.553-228.536-396.828-228.536
		c-61.536,0-112.026-15.084-145.786-29.079c-6.907-46.943-9.445-89.943-8.413-129.307c71.554-19.103,167.579-28.158,285.506-15.593
		c-50.958-101.948-105.209-178.438-203.539-246.9c58.661-80.473,130.896-121.238,215.375-150.403
		c131.205,103.298,227.616,147.703,347.221,195.524c-52.668,227.402-151.559,365.037-89.345,546.487l1.748,3.566
		C1956.91,3903.564,2106.479,4371.046,2099.323,4637.87z M2405.613,4753.032c-87.062,9.795-198.817,8.289-288.175-7.964
		c11.992-43.647,12.944-82.763,14.517-121.48l-0.255,0.124c1.955-258.223-134.1-714.467-232.176-867.399
		c-72.06-214.038,104.394-377.407,119.993-737.512c89.819,70.516,196.145,89.265,283.643,89.265
		c59.422,0,122.732,1.264,202.648-26.13c31.687,318.218,183.303,472.888,115.475,674.386
		c-90.962,141.841-234.229,595.053-232.176,867.398l-0.249-0.124C2390.552,4665.442,2391.672,4707.637,2405.613,4753.032z
		 M3395.511,4799.341c-41.587,68.058-110.38,104.852-154.224,105.059c39.221-48.29,57.82-100.455,55.301-155.593
		c-6.091-132.418-143.184-223.489-149.015-227.297l-9.795,13.628c1.219,0.952,121.312,97.08,126.683,215.232
		c6.789,148.231-169.028,273.762-329.194,191.104c109.078-89.552,73.684-245.336-10.336-357.133l-13.845,9.496
		c3.436,5.607,83.807,138.488,54.69,245.132c-10.031,36.734-32.432,66.571-66.408,89.128
		c-135.555,70.739-452.729,9.161-475.751-255.077c212.513,67.191,429.63-230.421,557.555-273.645
		c112.501,29.961,305.105-48.474,415.832,167.541C3449.991,4670.327,3425.44,4750.396,3395.511,4799.341z M2748.876,4280.947
		c55.524-39.055,150.209-90.548,271.272-98.401c-13.422,38.762-24.939,72.487-33.925,101.381
		C2913.946,4266.764,2831.762,4264.337,2748.876,4280.947z M3949.755,4228.247c84.406-5.19,170.066,3.764,248.954,36.932
		c259.892,109.16,247.546,383.96,114.405,454.601c-2.93-208.462-193.184-336.655-195.276-338.031l-9.572,13.801
		c2.016,1.481,201.024,150.378,169.726,373.612c-28.35,76.366-168.952,137.042-279.268,79.041
		c28.732-185.898-116.968-325.074-118.519-326.532l-11.849,11.909c1.401,1.493,139.468,151.069,93.414,335.697
		c-47.666,77.063-252.463,111.313-340.104,18.892c-39.858-41.431-59.664-136.421-63.01-190.118l-16.788,0.223
		c-0.162,4.305-2.519,75.967,17.902,140.726c-30.789-2.576-78.83-9.963-137.733-21.494c25.929-41.927,38.507-87.542,37.721-135.574
		C3691.318,4533.47,3848.482,4261.847,3949.755,4228.247z M3644.134,3998.896c-81.543-14.386-161.039-3.012-206.806,6.703
		c46.796-64.393,105.661-91.885,151.871-103.39C3614.612,3930.558,3632.689,3961.725,3644.134,3998.896z M3294.894,3766.589
		c53.241,8.126,106.632,21.742,155.406,41.985c-95.818,40.733-181.281,102.321-225.45,136.937
		C3237.348,3883.924,3267.726,3817.497,3294.894,3766.589z M3261.536,3762.201c-68.252,131.212-71.86,193.601-76.124,258.058
		c88.319-77.343,194.598-152.581,304.198-193.302c26.958,14.113,51.84,30.652,73.719,49.79
		c-56.757,17.921-125.295,57.884-174.429,146.209l-19.297,34.699l37.865-11.967c1.271-0.411,125.015-38.73,244.728-13.024
		c4.538,26.764,5.327,55.152,2.34,85.126c-78.387,27.417-207.714,97.235-266.757,267.855l-20.841,60.291
		c38.425-35.966,83.591-87.361,239.936-162.051c-0.137,0.293,1.723-3.828-16.552,37.021
		c87.746-35.241,173.171-67.497,286.401-84.772c-102.601,85.718-235.854,285.63-420.141,409.355
		c-12.39-78.999-64.106-165.866-128.126-212.812c-111.568-81.83-247.887-45.462-330.608-62.469
		c10.155-83.097,107.616-302.692,190.478-612.927C3212.144,3757.865,3236.705,3759.438,3261.536,3762.201z M3649.346,4153.435
		c-5.295,27.917-13.622,57.094-24.939,87.498c-86.893,39.103-146.674,75.321-183.87,100.9
		C3496.367,4231.823,3585.762,4178.575,3649.346,4153.435z M3055.735,4079.356c-90.093-73.971-219.524-99.264-288.187-107.747
		c122.818-66.864,258.462-30.716,325.51-4.846C3080.197,4006.84,3067.642,4044.408,3055.735,4079.356z M3150.665,3773.477
		c-154.38,35.543-139.064-38.645-279.637-38.645c-39.864,0-77.2,6.907-106.416,14.587c82.588-79.706,179.04-120.031,287.445-120.031
		c56.273,0,104.167-11.661,139.72-24.404C3182.588,3654.095,3163.826,3725.394,3150.665,3773.477z M3204.285,3406.262
		c-72.557-17.915-156.078-22.905-229.109-19.049c50.461-89.676,115.449-148.27,166.688-184.02
		C3179.295,3264.403,3198.369,3334.422,3204.285,3406.262z M3124.306,3176.924c-99.668,69.408-153.54,146.869-203.54,246.906
		c118.293-12.677,214.404-3.398,285.493,15.574c1.032,39.377-1.506,82.358-8.413,129.307
		c-33.741,13.989-84.237,29.085-145.799,29.085c-136.994,0-255.879,59.326-353.338,176.314c-7.747,9.314-0.086,0.105-43.641,52.407
		c40.144-17.979,24.131-10.807,62.234-27.872c1.506-0.672,151.635-66.682,263.888-7.279c43.112,22.781,96.812,28.226,159.95,16.361
		c-12.782,45.227-25.748,88.227-38.523,128.897c-80.298-30.671-248.829-73.229-391.762,34.002l-35.619,26.713l44.488,1.704
		c2.127,0.086,209.239,9.26,324.962,112.574c-4.617,13.409-9.078,26.302-13.422,38.823
		c-217.658,8.464-354.446,147.553-360.25,153.571l-44.672,46.303c81.387-27.13,195.91-72.264,350.879-35.985
		c-6.235,22.519-10.273,41.3-11.712,56.553c-139.44,52.525-350.851,343.164-544.041,267.005
		c-7.161-266.824,142.414-734.318,227.826-865.756l1.748-3.566c62.17-181.348-36.696-319.196-89.344-546.487
		c110.004-44.007,207.66-85.657,347.208-195.531C2992.196,3055.268,3065.072,3095.667,3124.306,3176.924z M2775.595,2960.94
		c27.324,19.628,60.106,37.081,98.531,52.595c-55.642,42.539-131.785,93.956-220.059,135.6
		C2686.082,3104.44,2734.515,3033.72,2775.595,2960.94z M2750.531,2941.045c-57.792,103.26-123.595,193.614-189.277,279.045
		c-10.585-46.029-19.227-95.818-24.213-150.298c79.171-34.394,139.494-90.478,182.619-161.255
		C2728.789,2920.038,2740.02,2931.731,2750.531,2941.045z M2766.861,2821.781c18.644-50.56,16.049-77.827,16.049-77.827
		c-0.006,0.325-1.904,26.901-23.111,77.435c-13.043-0.809-17.724-1.318-30.748-2.551c-76.646,180.565-221.33,265.381-407.98,256.153
		c-185.22,8.757-330.083-74.057-407.569-255.599h-0.006l-0.236-0.548c-12.724,1.207-17.466,1.723-30.684,2.551
		c-21.137-50.404-23.105-77.104-23.124-77.448c0,0-2.602,27.28,16.036,77.846c-48.93,2.509-101.505,0.006-150.215-5.222
		c15.259-45.475,84.505-239.7,189.29-360.25c108.915,49.732,314.196,41.345,386.139-110.211
		c47.156,89.596,146.961,136.8,290.123,136.8c51.636,0,93.844-15.208,128.113-37.447c81.562,94.58,153.39,251.399,191.516,368.695
		l15.128-4.512c-3.398-12.247-67.548-239.12-182.631-381.856c33.056-27.5,57.062-61.021,73.621-90.329
		c122.614,54.407,254.883,174.298,309.579,226.925c-14.991,61.855-40.549,148.387-67.796,227.714
		C2956.23,2816.734,2849.84,2826.048,2766.861,2821.781z M3994.851,1927.181c-40.275-68.09-85.855-106.312-132.294-149.072
		l22.389,61.875c67.64,186.812-12.189,475.442-126.129,586.255c-5.108-79.613-22.465-137.66-36.448-191.07l-14.196,62.886
		c-46.812,208.392-206.688,422.36-350.469,474.563c20.316-70.379,18.768-125.754,19.128-177.565
		c-33.241,49.875-67.985,128.12-282,187.809c20.946-62.613,42.832-135.287,57.827-194.057l10.655-9.964
		c-0.828-0.92-3.111-3.41-6.435-7.005c11.119-45.8,14.145-66.389,17.641-105.263l0.013-0.051
		c6.751-81.374,0.242-163.185-23.36-241.343c68.137,23.771,114.889,45.962,116.217,46.596l7.075-14.119
		c-5.786-3.019-58.033-30.012-131.686-57.734c-26.385-74.025-65.252-133.371-114.379-181.883
		c-109.234-107.271-267.012-73.132-426.567-45.083c-21.605-69.499-124.97-110.114-285.773-110.114
		c-194.423,0-259.911,50.743-275.972,102.784c-161.099-31.055-300.708-55.224-425.64,56.607
		c-58.078,52.098-97.025,116.924-121.194,188.535c-75.512,28.171-129.314,55.967-135.182,59.03l7.193,14.075
		c5.445-2.576,52.98-24.723,120.293-47.984c-3.162,11.257-6.092,21.822-9.738,39.886l-1.382,1.226v5.662
		c-25.035,131.049-0.907,235.468,6.572,295.597c-6.435,6.846-10.591,11.406-11.804,12.75l11.667,10.655
		c0.455-0.462,1.436-1.461,2.662-2.688c6.197,51.767,12.438,108.189,20.516,170.595
		c-174.416-58.164-203.906-122.668-238.567-174.467c0.398,48.474-1.669,105.209,19.211,177.498
		c-143.764-52.209-303.676-266.171-350.5-474.557l-14.106-63.093c-14.842,56.677-31.473,112.083-36.546,191.261
		c-113.915-110.832-193.738-399.443-126.117-586.249l22.389-61.875c-48.271,44.456-91.809,80.82-132.294,149.118
		c-38.412-326.325,110.864-414.162,235.201-668.588c91.666-4.31,182.931,29.424,260.72,64.262
		c-13.116-88.829-41.386-190.465-154.629-347.65c11.288-30.781,22.962-60.656,35.065-89.474
		c50.404,11.008,128.486,34.72,168.025,81.067l72.57,85.059c-31.034-68.475-107.237-214.013-117.939-406.963
		c151.113-246.373,334.952-395.152,511.963-484.189c194.553,125.087,287.391,342.654,351.433,494.022
		c-5.165-173.287-12.737-357.94-79.913-591.348c54.61-12.423,105.855-20.152,152.171-24.729
		c55.464,169.192,178.96,570.969,223.339,919.884l31.454-1.468c9.209-276.436,93.857-660.196,153.377-923.308
		c62.24,2.53,138.182,10.532,222.034,29.614c-67.777,235.325-75.022,427.289-79.926,591.348l32.862-77.669
		c105.843-250.141,241.814-367,318.578-416.347c177.005,89.05,360.849,237.842,511.969,484.24
		c-5.757,103.397-41.373,237.966-71.793,305.065l-46.127,101.779l72.538-84.987c39.539-46.341,117.602-70.059,168.012-81.067
		c12.103,28.824,23.777,58.699,35.065,89.474c-110.832,153.873-140.975,255.287-154.61,347.65
		c77.789-34.876,167.653-68.658,260.7-64.268c31.082,63.59,63.896,117.105,94.952,166.458
		c-143.739-3.842-264.391,84.393-368.852,175.497c194.853,18.241,377.831,78.354,510.991,153.371
		C4002.703,1804.089,4002.668,1860.688,3994.851,1927.181z M3676.085,944.345l-0.124,0.169
		c-8.387-22.231-17.001-43.908-25.812-65.13l0.057-0.006c-16.03-37.557-31.034-73.281-58.998-128.726
		c258.099-219.68,748.841-112.827,699.851,111.203c-72.768,317.639-289.624,431.313-455.416,471.088
		C3742.34,1173.077,3730.173,1093.62,3676.085,944.345z M3744.531,1226.618c-79.273,0.065-159.574,26.393-204.714,44.144
		c22.781-97.958,86.441-200.944,126.738-259.174C3695.643,1095.355,3703.578,1136.303,3744.531,1226.618z M3605.712,856.228
		c-42.364,9.62-90.953,25.108-130.931,49.797c20.504-61.301,39.864-141.56,48.624-214.254
		C3552.522,742.997,3579.894,797.437,3605.712,856.228z M3990.533,1714.485c-171.181-90.961-353.22-125.87-428.933-137.211
		c136.727-109.971,244.247-126.672,313.811-119.153C3929.003,1543.396,3971.446,1616.162,3990.533,1714.485z M3948.437,1517.499
		c-28.146-49.882-60.623-98.265-94.268-153.527c173.365-43.967,395.119-165.5,470.5-494.578
		c57.524-262.636-467.924-381.745-749.819-150.494c-30.117-56.867-50.423-88.313-76.28-130.82l-0.045,0.992
		c-59.912-91.887-124.391-169.668-191.207-235.481c132.371-156.122,332.038-230.754,537.287-230.754
		c407.171,0,748.768,350.937,692.9,783.671C4469.792,1403.218,4156.711,1505.898,3948.437,1517.499z"/>
	<path d="M2311.263,2572.225c-89.459,0-146.283-61.498-146.789-62.052l-13.39,10.075c2.277,3.541,56.763,86.727,160.179,86.727
		c105.263,0,141.51-86.004,141.86-86.877l-14.909-7.623C2437.838,2513.084,2399.108,2572.225,2311.263,2572.225z"/>
	<path d="M2845.522,627.966c-42.103-15.273-166.643,48.422-188.672,96.844l-8.948,19.408
		c203.084,27.234,474.589,192.291,580.628,312.996l60.199,68.494l-33.591-84.844C3128.2,721.972,2862.532,633.411,2845.522,627.966z
		 M2699.163,720.009c31.531-31.139,114.36-70.855,136.545-61.947c2.401,0.646,222.916,71.755,354.875,318.447
		C3064.505,868.978,2851.62,749.891,2699.163,720.009z"/>
	<path d="M1994.433,747.711l-8.948-19.421c-22.022-48.637-146.569-112.332-188.672-96.844
		c-16.794,5.23-282.678,94.006-409.623,412.896l-33.591,84.844l60.193-68.494C1511.381,949.622,1779.513,776.503,1994.433,747.711z
		 M1806.637,661.557c24.102-9.671,108.04,33.637,136.539,61.947c-152.463,29.881-365.342,148.975-491.192,256.507
		C1583.498,733.75,1804.236,662.203,1806.637,661.557z"/>
	<path d="M2773.274,1231.875c43.348-3.802,79.687,29.66,79.687,72.172c0,39.611-32.626,71.788-73.191,71.788
		c-39.37,0-71.841-30.937-73.117-69.459c-110.192,181.738,11.823,423.279,216.296,423.279
		c141.892,0,256.532-122.675,256.532-274.148C3179.49,1230.413,2941.655,1103.298,2773.274,1231.875z M2983.411,1603.732
		c-22.793,0-41.106-18.189-41.106-40.635c0-22.427,18.313-40.635,41.106-40.635c22.799,0,41.163,18.208,41.163,40.635
		C3024.574,1585.537,3006.217,1603.732,2983.411,1603.732z"/>
	<path d="M2873.193,1060.688c-222.113,0-402.822,194.221-402.822,432.93s180.702,432.93,402.822,432.93
		s402.821-194.221,402.821-432.93S3095.307,1060.688,2873.193,1060.688z M2873.193,1885.528
		c-199.508,0-361.802-175.804-361.802-391.91c0-216.112,162.293-391.917,361.802-391.917c199.518,0,361.801,175.804,361.801,391.917
		C3235.001,1709.724,3072.701,1885.528,2873.193,1885.528z"/>
	<path d="M1565.539,1231.875c43.341-3.802,79.687,29.654,79.687,72.172c0,39.611-32.626,71.788-73.191,71.788
		c-39.358,0-71.841-30.937-73.117-69.459c-110.192,181.745,11.823,423.279,216.296,423.279
		c141.892,0,256.532-122.675,256.532-274.148C1971.751,1230.413,1733.93,1103.298,1565.539,1231.875z M1775.692,1603.732
		c-22.793,0-41.106-18.189-41.106-40.635c0-22.427,18.313-40.635,41.106-40.635c22.799,0,41.163,18.208,41.163,40.635
		C1816.855,1585.537,1798.491,1603.732,1775.692,1603.732z"/>
	<path d="M1665.455,1060.688c-222.113,0-402.821,194.221-402.821,432.93s180.695,432.93,402.821,432.93
		s402.821-194.221,402.821-432.93S1887.565,1060.688,1665.455,1060.688z M1665.455,1885.528
		c-199.518,0-361.801-175.804-361.801-391.91c0-216.112,162.293-391.917,361.801-391.917s361.801,175.804,361.801,391.917
		C2027.257,1709.724,1864.97,1885.528,1665.455,1885.528z"/>
</g>
</svg>
