<?xml version="1.0" encoding="utf-8"?>
<svg version="1.1" id="Layer_1" xmlns="http://www.w3.org/2000/svg" xmlns:xlink="http://www.w3.org/1999/xlink" x="0px" y="0px"
	 viewBox="0 0 5000 4991.984" enable-background="new 0 0 5000 4991.984" xml:space="preserve">
<g>
	<path d="M4989.109,3182.602c-16.737-85.334-52.941-166.864-107.606-242.328l-13.039-18l-4.375,21.792
		c-54.144,269.641-660.799,690.37-1002.538-193.786c-3.326-8.604-6.724-17.112-10.186-25.535
		c188.401,116.847,304.637,309.52,537.599,309.515c157.816-0.002,323.776-89.707,381.952-252.522
		c40.667-113.814,24.291-244.072-40.765-341.437l-14.636-21.905l-3.112,26.16c-14.309,120.295-138.86,232.257-257.018,201.209
		c-107.821-28.33-159.002-161.866-206.286-263.009c-58.736-125.656-136.2-235.386-231.427-328.104
		c330.491-297.294,99.794-760.539-215.131-858.149c-6.495-2.275-13.125-4.161-19.862-5.639l-4.529,18.917
		c6.001,1.558,11.95,3.242,17.868,5.053c92.817,32.468,143.283,149.608,119.087,246.365
		c-23.699,94.77-108.469,179.249-221.23,220.471c-225.904,82.589-492.337-4.394-716.406,87.544
		c-2.916-16.393-4.707-22.204-18.743-77.368c-5.717,55.9-5.924,68.113-13.146,91.818c-70.909,35.339-133.288,88.823-167.673,160.58
		c-54.839,17.167-111.768,15.042-159.758-7.212c-123.855-57.434-170.555-208.546-187.369-293.51
		c-8.834-44.638-14.712-90.947-20.773-136.069c96.439,105.645,216.492,199.896,358.894,199.896
		c256.891,0,532.793-338.188,275.475-719.612l-44.629-66.153l27.43,74.937c42.831,117.007-32.877,225.902-125.463,255.326
		c-126.976,40.352-259.283-56.567-334.001-151.826c-91.17-116.233-154.151-261.39-284.384-343.321
		c82.096-77.073,141.409-178.859,163.867-290.104c30.99-153.521-36.585-310.508-200.849-466.599l-14.065,13.408
		c50.75,58.8,49.454,160.228-2.951,230.909c-61.814,83.372-164.011,108.266-219.428,115.684
		c-85.3,11.42-173.642,0.188-259.274-9.852c-116.068-13.567-245.5-22.566-340.681,47.301
		c-132.756-124.02-380.11-123.864-467.666,80.942c-10.811,25.289-17.407,52.309-19.715,80.565
		c-7.616-2.348-15.271-4.499-22.957-6.439c-2.255-2.343-4.508-4.679-6.759-7.013l0.004-0.005
		c-8.319-8.609-5.298-5.483-13.628-14.103l-0.004,0.005c-30.522-31.514-59.154-60.632-85.33-86.778l0.008-0.007
		c-7.027-6.993,8.352,8.311-13.807-13.741l-0.007,0.006c-40.951-40.611-75.238-73.261-101.986-97.11
		c-33.338-29.724-90.025-0.02-78.111,43.167c11.038,40.002,22.335,78.091,34.41,116.059l-0.033,0.004
		c4.408,13.672,3.06,9.49,6.095,18.907l0.023-0.002c5.293,16.275,10.733,32.542,16.359,48.913
		c-117.064,38.983-220.458,128.494-271.434,245.833c-48.424,111.468-52.948,256.846-146.534,339.56
		c-48.476,42.845-116.081,55.43-164.403,30.607c-27.075-13.909-48.047-43.55-52.914-77.777
		c6.127-43.034,20.476-68.984,44.893-122.391l-40.48,42.987c-18.979,20.154-27.58,48.719-24.052,79.185
		c-7.997,62.162,8.835,122.146,54.331,164.524c134.2,124.999,418.7,120.666,614.825-42.219
		c-30.983,128.688-31.74,109.033-49.064,173.01c-14.263,52.671-23.482,101.836-51.761,135.284
		c-23.95,28.326-52.471,35.103-63.59,39.95c-99.79,43.494-82.509,231.413-41.139,299.602
		c47.472,78.251,169.983,131.428,260.526,137.325c74.278-16.447,227.409,0.607,385.057-3.718
		c-15.185,75.377-27.336,144.339-37.034,210.183c-199.502,27.384-402,67.312-578.882,163.928
		C217.284,2528.38,53.806,2810.223,32.606,3092.844c-1.603,21.382-2.335,44.469-2.335,55.566
		c21.763,15.955,42.943,29.901,71.21,44.639c59.523,31.051,117.606,48.457,184.815,48.457c93.766,0,190.035-35.833,264.747-107.96
		l0.099,0.104c8.003-8.13,8.41-8.543,13.656-13.872l-0.085-0.09c24.242-25.809,44.74-54.465,60.981-85.315
		c75.715-143.822,229.166-256.508,426.663-283.315c6.876,76.674,19.11,153.356,39.513,234.484
		c-293.316,195.501-439.871,555.65-340.355,919.607c86.178-12.481,158.284-17.592,247.495-23.161
		c132.375-8.267,242.668-103.368,271.597-232.709l0.182,0.042c7.747-41.05,13.799-103.902,62.552-177.867
		c123.828,146.729,284.611,245.775,459.259,299.318c106.456,274.749,355.039,461.243,621.572,583.956
		c-105.247,126.304-184.305,333.738-250.859,486.719c195.903,98.015,387.413,153.627,602.007,113.607
		c-0.367,9.728-0.278,6.803-0.278,7.357c31.035,5.573,35.66,6.196,63.99,10.719l-0.043-0.079
		c139.421,20.807,276.446,21.561,321.99,15.95c64.883-7.997,121.884-37.057,166.279-79.997
		c30.686-29.896,46.675-56.281,63.277-90.232l-0.025-0.014c22.337-49.646,24.379-85.155,27.56-135.525
		c23.544-350.34,1.964-756.828-89.058-1100.598c-30.08,4.753-52.975,7.117-86.684,6.728c-79.373-0.914-160.601-19.568-227.66-50.235
		c105.926-216.616,65.321-526.136-57.201-701.031c-33.895-48.395-73.564-86.551-120.513-120.067
		c68.225-21.765,153.635-16.91,224.117-4.294c110.341,19.746,215.726,98.354,289.135,215.667
		c133.571,213.452,138.165,487.112,262.176,709.239c171.967,308.017,590.302,487.452,959.497,314.643
		C4872.963,3807.674,5046.525,3475.325,4989.109,3182.602z M3700.555,1699.944c107.137-39.166,205.421-122.044,233.423-234.023
		c18.43-73.699-2.578-157.978-52.101-214.655c194.5,106.76,318.507,350.137,265.887,557.998
		c-22.828,90.177-75.126,169.94-144.348,231.762c-312.007-292.869-719.004-345.222-1021.78-193.307
		c1.417-19.517,0.993-39.126-1.277-58.787C3202.527,1695.954,3468.682,1784.714,3700.555,1699.944z M2979.155,1870.489
		c426.464-222.156,1007.16-3.967,1252.319,520.506c48.989,104.812,102.699,243.036,218.967,273.587
		c122.025,32.063,247.829-71.332,276.691-192.124c71.418,125.932,60.266,290.825-29.778,401.205
		c-97.403,119.403-275.028,171.37-422.35,123.565c-164.926-53.515-258.346-199.808-436.524-302.701
		c-119.671-270.67-325.342-464.428-620.527-468.223c-288.49-3.672-484.678,193.636-518.119,420.165
		c-8.445-3.871-17.015-7.679-25.787-11.471c-58.265-126.952-65.262-279.97-14.226-417.655
		C2812.803,2155.862,2955.516,2031.616,2979.155,1870.489z M2647.977,2624.012c-49.257-20.257-103.83-40.015-156.997-59.302
		c-137.136-49.836-239.728-204.259-307.266-333.623c145.746,50.211,308.362,46.946,452.307-4.703
		C2592.659,2355.357,2596.574,2499.283,2647.977,2624.012z M2935.15,1810.886c-25.828,55.593-74.345,98.703-129.794,123.055
		C2833.92,1884.665,2878.628,1842.5,2935.15,1810.886z M2411.693,1647.301c24.709,124.861,83.216,254.03,198.269,307.382
		c131.181,60.835,304.467-21.108,351.646-157.373c35.54,385.792-689.808,677.09-1057.959,208.361
		c172.162-184.477,166.014-526.502-33.479-723.591c-34.952-34.529-74.536-64.231-114.103-92.406
		c-2.707-8.529-5.588-16.664-8.647-24.39c57.015-50.375,108.888-110.995,135.829-182.166
		c216.904-4.901,390.626,136.68,457.406,302.924C2385.993,1398.911,2387.813,1526.637,2411.693,1647.301z M1691.911,1611.233
		c-105.061-247.201-454.247-306.821-562.495-544.226c-64.586-141.639-12.788-328.652,115.464-416.883
		c113.41-78.021,278.283-73.727,391.527,7.92c-6.36,1.899-12.341,3.811-18.029,5.761c-57.65,5.64-107.325,48.339-132.523,100.448
		c-6.253,10.497-10.731,21.458-13.805,32.117c-6.542,16.332-8.336,34.525-5.199,52.71c0.619,117.875,90.217,211.542,143.659,256.948
		c79.201,67.294,173.103,117.893,245.986,189.895c167.278,165.261,200.339,447.259,75.266,641.995
		c-122.1,190.106-363.717,221.279-552.827,157.515c155.822-4.686,312.126-114.921,336.693-302.969
		C1723.829,1729.703,1715.628,1667.035,1691.911,1611.233z M1050.457,741.128c19.997,21.717,38.545,42.043,55.433,60.747
		c-7.611,20.512-13.683,42.107-17.914,65.323c-60.178,62.642-178.028,134.308-230.5,133.617
		c-18.576-40.76-36.18-80.288-53.571-120.292C899.059,868.74,990.438,818.247,1050.457,741.128z M795.824,861.865
		c-15.317-35.505-29.481-69.149-42.209-100.266c41.639-9.844,82.098-25.851,119.423-47.593
		c29.754-17.335,66.591-44.665,87.934-68.883c25.598,27.14,51.136,54.489,76.099,81.496
		C981.29,799.922,893.003,851.599,795.824,861.865z M1070.679,734.374c22.037-7.342,46.999-6.182,69.948-2.691
		c-10.059,15.834-18.973,32.599-26.641,50.14C1100.505,766.933,1086.036,751.08,1070.679,734.374z M1502.765,932.493
		c-1.031-2.668-2.019-5.359-2.967-8.068c40.498-78.377,136.364-122.153,225.531-102.174c15.904,90.866-23.016,189.25-96.443,244.977
		C1598.348,1010.473,1551.632,974.041,1502.765,932.493z M1616.27,1085.29c-3.236-2.845-6.579-5.853-10.002-9.017
		c1.754-0.152,3.49-0.26,5.213-0.338C1613.128,1078.986,1614.723,1082.106,1616.27,1085.29z M1599.353,1055.85
		c-3.534,2.506-4.348,3.111-8.186,5.905c-23.007-23.02-47.758-52.134-67.436-85.942
		C1552.087,1000.166,1578.485,1024.68,1599.353,1055.85z M1742.042,806.362l-0.055-0.014l-0.009-0.045
		c-102.405-26.287-200.366,15.938-249.707,92.363c-4.145-17.742-5.942-34.328-5.969-51.338c-2.987-16.493-1.399-30.939,4.17-44.614
		c1.593-5.597,3.409-10.814,5.914-16.518c78.444-105.244,203.831-109.722,346.338-112.884
		c51.205,156.936,95.956,306.239-123.36,490.467c-32.033-22.562-63.919-45.37-93.671-70.406
		C1722.346,1027.034,1764.253,915.899,1742.042,806.362z M2307.26,797.383c103.357,81.692,162.712,209.561,245.143,314.647
		c61.815,78.808,154.75,152.722,254.766,166.496c152.222,20.965,261.955-106.429,251.094-231.437
		c195.097,345.85-57.414,640.78-290.201,640.767c-115.473-0.007-220.434-69.387-302.65-150.637
		c-20.751-20.507-40.725-42.191-60.164-64.2c-9.419-65.697-21.552-132.018-46.542-194.228
		c-69.925-174.072-247.953-316.948-468.726-315.391c22.342-73.189,14.979-143.428-4.753-217.333
		C2031.245,679.162,2195.634,709.154,2307.26,797.383z M2141.517,340.585c85.038-42.69,144.817-116.617,147.598-213.242
		c0.654-22.698-2.262-44.611-8.466-64.889c124.31,134.969,173.898,269.394,147.473,400.295
		c-21.873,108.353-80.781,208.502-162.325,283.518c-112.66-63.483-255.642-77.724-385.853-19.142
		c-7.091-24.452-15.156-48.926-23.21-73.582c-58.736,1.293-122.464,2.329-179.902,11.692l-12.956-10.607
		c-48.336-39.572-108.968-65.8-173.745-75.647c0.85-64.044-23.511-121.541-66.282-167.59
		C1610.831,278.275,1901.278,461.185,2141.517,340.585z M960.168,486.04c114.763-268.448,511.511-151.287,510.338,90.48
		c-121.063-12.056-243.451,32.078-320.096,140.584c-54.164-71.925-127.868-122.951-208.626-151.766
		C943.435,538.087,949.399,511.231,960.168,486.04z M1119.786,709.881c-24.655-1.451-45.414,1.529-63.325,9.057l-7.681-8.323
		l-0.006,0.008c-24.816-26.828-50.174-53.967-75.583-80.893l0.003-0.004c-2.195-2.323-11.353-12.015-13.546-14.335l-0.005,0.006
		c-11.08-11.7-22.212-23.403-33.349-35.056C1000.856,605.053,1068.824,649.711,1119.786,709.881z M880.403,560.624
		c22.33,23.16,44.856,46.741,67.145,70.291c-5.1,5.925-11.175,12.02-18.4,18.472c-51.424,45.919-114.53,78.305-182.953,93.964
		c-14.142-35.001-27.472-69.204-39.734-101.953c33.336-0.643,66.194-8.124,95.807-21.901h0
		C831.625,605.841,858.445,585.604,880.403,560.624z M779.294,457.542c26.776,26.734,56.161,56.622,87.529,89.025
		c-41.924,48.387-100.991,76.024-167.572,75.405c-14.171-38.512-27.024-75.478-39.109-112.487
		C701.358,503.018,744.853,485.362,779.294,457.542z M654.081,490.719c-12.433-38.928-24.018-77.925-35.339-118.954
		c-6.686-24.234,27.47-40.357,46.41-23.471c26.28,23.432,59.974,55.505,100.246,95.422
		C732.715,469.275,693.084,485.157,654.081,490.719z M69.507,1249.111c-29.936-27.884-44.551-62.012-48.793-97.095
		c31.176,49.745,87.824,64.718,142.24,53.49c101.257-20.889,153.918-113.17,184.497-211.4
		c18.704-60.08,31.075-122.79,55.799-179.701c48.213-110.98,145.726-197.477,259.947-235.267
		c4.867,13.885,9.877,27.889,15.065,42.086l-0.039-0.002c2.067,5.586,6.198,16.749,7.313,19.764l0.015,0.001
		c12.69,34.109,26.56,69.839,41.331,106.474l-0.021,0.004c4.934,12.153,5.895,14.517,7.44,18.322l0.008-0.002
		c12.406,30.393,26.2,63.236,41.111,97.888l-0.015,0.001c4.154,9.602,4.016,9.284,8.148,18.834l0.009-0.001
		c16.638,38.359,33.433,76.212,51.055,115.039c-49.014,68.812-98.81,140.219-162.06,196.637
		C482.442,1363.764,198.395,1369.161,69.507,1249.111z M149.266,3194.094c-35.751-15.144-69.162-33.792-99.385-55.465
		c1.898-93.38,19.954-186.863,53.704-278.086c162.229,45.147,315.714,136.716,434.044,258.935
		C432.893,3220.716,281.5,3250.103,149.266,3194.094z M997.796,3862.57c-75.478,4.714-155.387,10.211-231.998,20.876
		c-20.28-77.489-28.726-158.23-25.133-240.244c167.279-35.825,343.573-35.215,510.985,1.769
		C1224.623,3765.912,1121.519,3854.844,997.796,3862.57z M2750.376,4938.022c-174.189,30.911-353.138-2.755-561.852-105.744
		c26.431-60.502,61.266-137.376,102.484-213.28c184.354,20.763,358.954,124.165,468.996,277.846
		C2756.205,4912.487,2753.088,4925.814,2750.376,4938.022z M2768.121,4863.58c-0.728,2.854-1.45,5.704-2.165,8.547
		c-114.11-151.113-290.747-252.726-475.552-272.752c29.26-61.788,61.275-122.533,96.345-175.037l2.746,3.094
		c27.204-47.273,42.907-64.238,56.402-79.654c-84.122-38.069-162.512-78.283-244.085-131.918l0,0
		c-165.08-108.541-306.784-250.746-382.724-431.44l0.122,0.137c-1.028-2.446-2.047-4.897-3.051-7.354
		c126.97,38.884,243.833,46.266,371.019,35.016c151.195,153.399,359.481,284.073,592.039,364.12
		C2771.749,4381.18,2773.463,4644.948,2768.121,4863.58z M3124.002,4971.594c-110.797,3.458-221.736-4.84-338.886-25.364
		c3.137-86.198,4.581-175.779,5.548-253.571c195.214-4.933,389.843,41.373,564.053,134.263
		C3308.789,4913.395,3221.222,4968.561,3124.002,4971.594z M2966.373,2907.193c94.077,183.021,114.66,441.083,11.912,640.921
		c111.954,54.006,230.011,69.583,326.374,56.393c81.75,313.748,110.718,708.664,81.574,1113.327
		c-2.345,32.574-10.229,63.461-22.687,91.75c-175.844-93.663-375.215-141.287-572.8-136.386
		c2.067-182.141,2.451-351.917,8.456-510.609c-228.987-77.692-450.469-206.496-617.91-384.514
		c-146.651-155.914-255.024-417.67-166.553-650.982c-6.362-2.413-11.829-4.486-18.191-6.898
		c-87.027,229.504,4.906,496.085,172.95,673.713c-4.828,0.323-9.042,0.607-10.182,0.701
		c-427.265,34.948-788.271-229.45-969.838-609.076l76.063,171.98c20.781,30.453,41.894,58.472,63.951,85.264
		c-58.589,83.361-65.254,138.765-74.348,183.045c-168.141-37.035-345.067-37.98-513.239-2.763
		c17.789-260.577,154.254-485.608,365.021-624.177l52.58,118.885c-49.711-122.064-77.777-246.173-87.109-364.439l-0.298,0.023
		c-0.149-1.631-0.299-3.287-0.45-4.979c139.159-15.136,275.779,11.532,404.718,61.522c77.673-71.8,152.42-137.003,224.473-203.603
		l-13.205-14.287c-68.735,63.539-146.066,131.29-215.568,195.377c-187.266-71.285-402.82-90.047-588.47-10.326
		c-118.174,50.746-218.263,140.873-274.603,247.273c-16.041,30.295-35.526,57.484-57.669,81.328
		c-119.843-123.756-273.384-216.59-441.28-263.507c63.375-160.905,173.777-303.293,317.334-401.265
		c234.051-159.731,531.251-195.547,793.465-227.147c-0.814-6.756-1.514-12.56-2.328-19.315
		c-42.591,5.133-83.962,10.226-124.375,15.62c0.311-2.089,0.632-4.191,0.948-6.286l1.99,0.317
		c9.793-61.567,22.023-127.794,37.338-202.232c156.809-5.803,323.284-32.397,450.547-125.302l-11.471-15.713
		c-261.05,190.575-699.086,93.939-848.914,125.877c-88.865-6.267-220.776-65.153-252.345-147.899
		c-31.844-83.467-32.518-226.151,48.28-253.964c77.097-26.54,94.55-86.817,114.087-162.128
		c27.777-107.075,15.391-32.756,61.92-224.1c57.006-53.583,102.928-118.088,147.416-180.607l0.481,1.054l5.351,0.697
		c57.831,7.538,175.014-67.39,233.83-121.157c-5.966,61.614,3.533,122.567,28.116,176.479
		c110.976,243.385,460.628,304.556,562.292,543.765c47.567,111.922,26.991,257.035-60.436,350.915
		c-72.886,78.265-187.238,119.128-292.844,102.683l-67.859-10.567c75.731,35.273,132.962,65.773,234.918,78.535
		c144.707,18.114,296.604-18.519,401.672-120.272c70.803,89.154,161.72,159.08,267.208,200.923
		c70.956,140.088,179.558,308.28,327.681,361.939C2709.409,2664.646,2872.021,2723.637,2966.373,2907.193z M4347.623,3996.174
		c-287.5,36.991-586.959-113.93-728.254-367.018c-150.414-269.416-128.843-650.563-391.245-854.5
		c-54.352-42.241-112.768-69.181-173.626-80.073c-77.939-13.948-173.612-18.619-247.488,9.88
		c-29.572-19.26-57.773-34.317-88.282-49.128c18.576-135.885,102.421-268.092,226.176-340.51
		c158.47-92.738,373.865-91.914,548.744,2.099c187.32,100.701,293.591,295.058,349.756,440.37
		c340.429,880.771,950.851,498.725,1034.532,211.772C5157.117,3380.402,4826.115,3934.6,4347.623,3996.174z"/>
	<path d="M1437.789,1532.524c-33.203-27.069-89.421-14.092-100.818,34.926c-47.233-51.199-93.341-17.522-101.878,18.541
		c-5.052,21.334,0.311,46.258,15.1,70.18c26.025,42.095,65.698,66.041,120.351,69.853c61.176-34.869,93.052-93.223,93.023-135.099
		C1463.551,1567.507,1453.914,1545.675,1437.789,1532.524z M1366.023,1706.179c-42.951-3.797-77.238-24.581-99.282-60.238
		c-6.981-11.291-17.915-33.512-12.716-55.468c3.581-15.126,17.56-29.944,33.49-29.944c20.68,0,42.418,25.476,52.07,44.317
		l17.741-7.917c-6.715-17.519-0.068-39.858,15.133-50.857c15.198-10.998,38.496-10.326,53.037,1.53
		c11.646,9.497,18.605,25.698,18.617,43.337C1444.14,1632.322,1407.828,1681.402,1366.023,1706.179z"/>
	<path d="M1249.337,1360.405c-13.862,13.678-31.521,14.567-50.911,12.781c-8.246-0.76-16.304-3.146-23.706-6.851
		c-2.11-7.578-4.932-14.859-8.385-21.769c11.797,2.476,22.503,2.524,29.535-1.82c20.255-12.512,31.971-37.568,28.587-61.135
		c-3.384-23.567-25.08-50.392-48.038-56.697c23.854,28.11,17.614,80.201-26.482,94.891c-10.562-12.385-23.544-22.64-38.218-30.033
		c25.695-32.21,12.342-75.776-19.399-92.116c6.309,20.011,7.076,41.312,5.71,62.25c-0.5,7.647-1.597,15.468-4.728,22.396
		c-92.145-28.837-180.866,55.859-154.572,149.971c14.424-51.631,61.693-89.552,117.927-89.552
		c56.232,0,103.501,37.92,117.925,89.552c2.404-8.608,3.952-17.57,4.441-26.818
		C1213.594,1418.162,1247.097,1393.369,1249.337,1360.405z"/>
	<path d="M755.998,1939.363l-0.784,19.439c96.625,3.896,167.482-42.22,202.269-123.166l-17.874-7.682
		C907.243,1903.266,842.035,1942.833,755.998,1939.363z"/>
	<path d="M769.705,1715.52c-6.05-38.769-49.284-49.081-72.143-17.127c-10.436,14.588-11.762,32.619-3.377,45.936l16.464-10.366
		c-9.113-14.475,8.167-38.617,24.803-34.672c16.642,3.95,21.216,33.29,6.574,42.121l10.048,16.659
		C765.55,1749.945,772.471,1733.241,769.705,1715.52z"/>
</g>
</svg>
